<svg width="290" height="181" viewBox="0 0 290 181" fill="none" xmlns="http://www.w3.org/2000/svg">
<path d="M275.063 4H14.9367C8.8965 4 4 7.60963 4 12.0623V168.938C4 173.39 8.8965 177 14.9367 177H275.063C281.103 177 286 173.39 286 168.938V12.0623C286 7.60963 281.103 4 275.063 4Z" fill="white" fill-opacity="0.21" stroke="#7B7B7B" stroke-width="8" stroke-miterlimit="10"/>
<path d="M145.091 28H31.9086C30.3022 28 29 29.7878 29 31.9931V32.0069C29 34.2122 30.3022 36 31.9086 36H145.091C146.698 36 148 34.2122 148 32.0069V31.9931C148 29.7878 146.698 28 145.091 28Z" fill="#7B7B7B"/>
<path d="M258.096 28H238.904C237.3 28 236 29.7878 236 31.9931V32.0069C236 34.2122 237.3 36 238.904 36H258.096C259.7 36 261 34.2122 261 32.0069V31.9931C261 29.7878 259.7 28 258.096 28Z" fill="#7B7B7B"/>
<path d="M258.096 87H238.904C237.3 87 236 88.7878 236 90.9931V91.0069C236 93.2122 237.3 95 238.904 95H258.096C259.7 95 261 93.2122 261 91.0069V90.9931C261 88.7878 259.7 87 258.096 87Z" fill="#7B7B7B"/>
<path d="M258.096 146H238.904C237.3 146 236 147.788 236 149.993V150.007C236 152.212 237.3 154 238.904 154H258.096C259.7 154 261 152.212 261 150.007V149.993C261 147.788 259.7 146 258.096 146Z" fill="url(#paint0_linear_1655_16830)"/>
<path d="M107.102 87H31.8979C30.2974 87 29 88.7878 29 90.9931V91.0069C29 93.2122 30.2974 95 31.8979 95H107.102C108.703 95 110 93.2122 110 91.0069V90.9931C110 88.7878 108.703 87 107.102 87Z" fill="#7B7B7B"/>
<line x1="4" y1="64" x2="286" y2="64" stroke="#7B7B7B" stroke-width="8"/>
<line x1="4" y1="120" x2="286" y2="120" stroke="#7B7B7B" stroke-width="8"/>
<path d="M183.105 146H31.8952C30.2962 146 29 147.788 29 149.993V150.007C29 152.212 30.2962 154 31.8952 154H183.105C184.704 154 186 152.212 186 150.007V149.993C186 147.788 184.704 146 183.105 146Z" fill="url(#paint1_linear_1655_16830)"/>
<defs>
<linearGradient id="paint0_linear_1655_16830" x1="248.5" y1="146" x2="248.5" y2="154" gradientUnits="userSpaceOnUse">
<stop stop-color="#F3AD58"/>
<stop offset="1" stop-color="#DC8E2F"/>
</linearGradient>
<linearGradient id="paint1_linear_1655_16830" x1="107.5" y1="146" x2="107.5" y2="154" gradientUnits="userSpaceOnUse">
<stop stop-color="#F3AD58"/>
<stop offset="1" stop-color="#DC8E2F"/>
</linearGradient>
</defs>
</svg>
