<svg width="286" height="239" viewBox="0 0 286 239" fill="none" xmlns="http://www.w3.org/2000/svg">
<path d="M272.65 2H12.92C6.88903 2 2 6.88906 2 12.92V225.4C2 231.431 6.88903 236.32 12.92 236.32H272.65C278.681 236.32 283.57 231.431 283.57 225.4V12.92C283.57 6.88906 278.681 2 272.65 2Z" fill="white" fill-opacity="0.33" stroke="#9D9D9E" stroke-width="4" stroke-miterlimit="10"/>
<path d="M142.79 26.4502H30.33C28.7339 26.4502 27.4399 27.7441 27.4399 29.3402V29.3502C27.4399 30.9463 28.7339 32.2402 30.33 32.2402H142.79C144.386 32.2402 145.68 30.9463 145.68 29.3502V29.3402C145.68 27.7441 144.386 26.4502 142.79 26.4502Z" fill="#222222" fill-opacity="0.85"/>
<path d="M255.79 26.4502H236.69C235.094 26.4502 233.8 27.7441 233.8 29.3402V29.3502C233.8 30.9463 235.094 32.2402 236.69 32.2402H255.79C257.386 32.2402 258.68 30.9463 258.68 29.3502V29.3402C258.68 27.7441 257.386 26.4502 255.79 26.4502Z" fill="#A5A5A5" fill-opacity="0.66"/>
<path d="M283.57 59H2V116.43H283.57V59Z" fill="#E1E6EF" fill-opacity="0.38" stroke="#BABABA" stroke-opacity="0.55" stroke-width="4" stroke-miterlimit="10"/>
<path d="M255.79 85.3501H236.69C235.094 85.3501 233.8 86.644 233.8 88.2401V88.2501C233.8 89.8462 235.094 91.1401 236.69 91.1401H255.79C257.386 91.1401 258.68 89.8462 258.68 88.2501V88.2401C258.68 86.644 257.386 85.3501 255.79 85.3501Z" fill="#A5A5A5" fill-opacity="0.66"/>
<path d="M255.79 144.26H236.69C235.094 144.26 233.8 145.554 233.8 147.15V147.16C233.8 148.756 235.094 150.05 236.69 150.05H255.79C257.386 150.05 258.68 148.756 258.68 147.16V147.15C258.68 145.554 257.386 144.26 255.79 144.26Z" fill="url(#paint0_linear_1651_16780)"/>
<path d="M255.79 203.16H236.69C235.094 203.16 233.8 204.454 233.8 206.05V206.06C233.8 207.656 235.094 208.95 236.69 208.95H255.79C257.386 208.95 258.68 207.656 258.68 206.06V206.05C258.68 204.454 257.386 203.16 255.79 203.16Z" fill="#A5A5A5" fill-opacity="0.66"/>
<path d="M105.33 85.3501H30.33C28.7339 85.3501 27.4399 86.644 27.4399 88.2401V88.2501C27.4399 89.8462 28.7339 91.1401 30.33 91.1401H105.33C106.926 91.1401 108.22 89.8462 108.22 88.2501V88.2401C108.22 86.644 106.926 85.3501 105.33 85.3501Z" fill="#222222" fill-opacity="0.85"/>
<path d="M181.27 144.26H30.33C28.7339 144.26 27.4399 145.554 27.4399 147.15V147.16C27.4399 148.756 28.7339 150.05 30.33 150.05H181.27C182.866 150.05 184.16 148.756 184.16 147.16V147.15C184.16 145.554 182.866 144.26 181.27 144.26Z" fill="url(#paint1_linear_1651_16780)"/>
<path d="M105.8 203.16H30.33C28.7339 203.16 27.4399 204.454 27.4399 206.05V206.06C27.4399 207.656 28.7339 208.95 30.33 208.95H105.8C107.396 208.95 108.69 207.656 108.69 206.06V206.05C108.69 204.454 107.396 203.16 105.8 203.16Z" fill="#222222" fill-opacity="0.85"/>
<path d="M2 175.57H283.58" stroke="#BABABA" stroke-opacity="0.55" stroke-width="4" stroke-miterlimit="10"/>
<defs>
<linearGradient id="paint0_linear_1651_16780" x1="246.24" y1="144.26" x2="246.24" y2="150.05" gradientUnits="userSpaceOnUse">
<stop stop-color="#F3AD58"/>
<stop offset="1" stop-color="#DC8E2F"/>
</linearGradient>
<linearGradient id="paint1_linear_1651_16780" x1="105.8" y1="144.26" x2="105.8" y2="150.05" gradientUnits="userSpaceOnUse">
<stop stop-color="#F3AD58"/>
<stop offset="1" stop-color="#DC8E2F"/>
</linearGradient>
</defs>
</svg>
