<svg width="269" height="217" viewBox="0 0 269 217" fill="none" xmlns="http://www.w3.org/2000/svg">
<path d="M260.338 4H8.44237C6.20439 4 4.39014 7.46067 4.39014 9.66292V54.3371C4.39014 58.427 6.20439 60 8.44237 60H260.338C262.576 60 264.39 57.7978 264.39 54.6517V7.46067C264.39 4.62921 262.576 4 260.338 4Z" fill="white" fill-opacity="0.21" stroke="#7B7B7B" stroke-width="8" stroke-miterlimit="10"/>
<path d="M259.948 164H8.05224C5.81425 164 4 167.028 4 168.955V208.045C4 211.624 5.81425 213 8.05224 213H259.948C262.186 213 264 211.073 264 208.32V167.028C264 164.551 262.186 164 259.948 164Z" fill="white" fill-opacity="0.21" stroke="#7B7B7B" stroke-width="8" stroke-miterlimit="10"/>
<path d="M258.863 86H9.13651C6.2997 86 4 88.7281 4 92.0933V127.907C4 131.272 6.2997 134 9.13651 134H258.863C261.7 134 264 131.272 264 127.907V92.0933C264 88.7281 261.7 86 258.863 86Z" fill="#E1E6EF" fill-opacity="0.27" stroke="url(#paint0_linear_1655_16858)" stroke-width="8" stroke-miterlimit="10"/>
<path d="M246.327 107.351H205.485C204.328 107.351 203.39 108.535 203.39 109.995V110.005C203.39 111.465 204.328 112.649 205.485 112.649H246.327C247.484 112.649 248.422 111.465 248.422 110.005V109.995C248.422 108.535 247.484 107.351 246.327 107.351Z" fill="url(#paint1_linear_1655_16858)"/>
<path d="M169.021 106.026H45.557C43.808 106.026 42.3901 107.802 42.3901 109.993V110.007C42.3901 112.197 43.808 113.973 45.557 113.973H169.021C170.77 113.973 172.188 112.197 172.188 110.007V109.993C172.188 107.802 170.77 106.026 169.021 106.026Z" fill="url(#paint2_linear_1655_16858)"/>
<path d="M26.5 194C28.9853 194 31 191.985 31 189.5C31 187.015 28.9853 185 26.5 185C24.0147 185 22 187.015 22 189.5C22 191.985 24.0147 194 26.5 194Z" stroke="#6B7280" stroke-opacity="0.61" stroke-width="8" stroke-miterlimit="10"/>
<path d="M141.609 185.5H48.391C47.0705 185.5 46 187.288 46 189.493V189.507C46 191.712 47.0705 193.5 48.391 193.5H141.609C142.929 193.5 144 191.712 144 189.507V189.493C144 187.288 142.929 185.5 141.609 185.5Z" fill="#7B7B7B"/>
<path d="M249.72 185.5H205.28C204.021 185.5 203 187.288 203 189.493V189.507C203 191.712 204.021 193.5 205.28 193.5H249.72C250.979 193.5 252 191.712 252 189.507V189.493C252 187.288 250.979 185.5 249.72 185.5Z" fill="#7B7B7B"/>
<path d="M26.5 36C28.9853 36 31 33.9853 31 31.5C31 29.0147 28.9853 27 26.5 27C24.0147 27 22 29.0147 22 31.5C22 33.9853 24.0147 36 26.5 36Z" stroke="#6B7280" stroke-opacity="0.61" stroke-width="8" stroke-miterlimit="10"/>
<path d="M141.609 27.5H48.391C47.0705 27.5 46 29.2878 46 31.4931V31.5069C46 33.7122 47.0705 35.5 48.391 35.5H141.609C142.929 35.5 144 33.7122 144 31.5069V31.4931C144 29.2878 142.929 27.5 141.609 27.5Z" fill="#7B7B7B"/>
<path d="M249.72 27.5H205.28C204.021 27.5 203 29.2878 203 31.4931V31.5069C203 33.7122 204.021 35.5 205.28 35.5H249.72C250.979 35.5 252 33.7122 252 31.5069V31.4931C252 29.2878 250.979 27.5 249.72 27.5Z" fill="#7B7B7B"/>
<path d="M26.8901 119C32.1369 119 36.3901 114.747 36.3901 109.5C36.3901 104.253 32.1369 100 26.8901 100C21.6434 100 17.3901 104.253 17.3901 109.5C17.3901 114.747 21.6434 119 26.8901 119Z" fill="url(#paint3_linear_1655_16858)"/>
<path d="M134.39 60L134.39 82" stroke="#7B7B7B" stroke-width="8"/>
<path d="M134.39 138L134.39 160" stroke="#7B7B7B" stroke-width="8"/>
<defs>
<linearGradient id="paint0_linear_1655_16858" x1="134" y1="86" x2="134" y2="134" gradientUnits="userSpaceOnUse">
<stop stop-color="#6787F5"/>
<stop offset="1" stop-color="#A996F6"/>
</linearGradient>
<linearGradient id="paint1_linear_1655_16858" x1="225.906" y1="107.351" x2="225.906" y2="112.649" gradientUnits="userSpaceOnUse">
<stop stop-color="#6787F5"/>
<stop offset="1" stop-color="#A996F6"/>
</linearGradient>
<linearGradient id="paint2_linear_1655_16858" x1="107.289" y1="106.026" x2="107.289" y2="113.973" gradientUnits="userSpaceOnUse">
<stop stop-color="#6787F5"/>
<stop offset="1" stop-color="#A996F6"/>
</linearGradient>
<linearGradient id="paint3_linear_1655_16858" x1="26.8901" y1="100" x2="26.8901" y2="119" gradientUnits="userSpaceOnUse">
<stop stop-color="#6787F5"/>
<stop offset="1" stop-color="#A996F6"/>
</linearGradient>
</defs>
</svg>
