<svg width="317" height="216" viewBox="0 0 317 216" fill="none" xmlns="http://www.w3.org/2000/svg">
<path d="M310.122 2H6.87827C4.18408 2 2 5.02809 2 6.95506V46.0449C2 49.6236 4.18408 51 6.87827 51H310.122C312.816 51 315 49.073 315 46.3202V5.02809C315 2.55056 312.816 2 310.122 2Z" fill="white" fill-opacity="0.33" stroke="#9D9D9E" stroke-width="4" stroke-miterlimit="10"/>
<path d="M310.122 165H6.87827C4.18408 165 2 168.028 2 169.955V209.045C2 212.624 4.18408 214 6.87827 214H310.122C312.816 214 315 212.073 315 209.32V168.028C315 165.551 312.816 165 310.122 165Z" fill="white" fill-opacity="0.33" stroke="#9D9D9E" stroke-width="4" stroke-miterlimit="10"/>
<path d="M143.609 20H50.391C49.0705 20 48 21.3408 48 22.9948V23.0052C48 24.6592 49.0705 26 50.391 26H143.609C144.929 26 146 24.6592 146 23.0052V22.9948C146 21.3408 144.929 20 143.609 20Z" fill="#222222" fill-opacity="0.85"/>
<path d="M143.609 183H50.391C49.0705 183 48 184.341 48 185.995V186.005C48 187.659 49.0705 189 50.391 189H143.609C144.929 189 146 187.659 146 186.005V185.995C146 184.341 144.929 183 143.609 183Z" fill="#222222" fill-opacity="0.85"/>
<path d="M90.4053 33H49.5947C48.714 33 48 33.6704 48 34.4974V34.5026C48 35.3296 48.714 36 49.5947 36H90.4053C91.286 36 92 35.3296 92 34.5026V34.4974C92 33.6704 91.286 33 90.4053 33Z" fill="#9D9D9E"/>
<path d="M90.4053 196H49.5947C48.714 196 48 196.67 48 197.497V197.503C48 198.33 48.714 199 49.5947 199H90.4053C91.286 199 92 198.33 92 197.503V197.497C92 196.67 91.286 196 90.4053 196Z" fill="#9D9D9E"/>
<path d="M308.816 84H8.18357C4.76848 84 2 86.7281 2 90.0933V125.907C2 129.272 4.76848 132 8.18357 132H308.816C312.232 132 315 129.272 315 125.907V90.0933C315 86.7281 312.232 84 308.816 84Z" fill="#E1E6EF" fill-opacity="0.38" stroke="url(#paint0_linear_1651_16808)" stroke-width="4" stroke-miterlimit="10"/>
<path d="M222.418 22H191.582C190.708 22 190 22.6704 190 23.4974V23.5026C190 24.3296 190.708 25 191.582 25H222.418C223.292 25 224 24.3296 224 23.5026V23.4974C224 22.6704 223.292 22 222.418 22Z" fill="#9D9D9E"/>
<path d="M222.418 185H191.582C190.708 185 190 185.894 190 186.997V187.003C190 188.106 190.708 189 191.582 189H222.418C223.292 189 224 188.106 224 187.003V186.997C224 185.894 223.292 185 222.418 185Z" fill="#9D9D9E"/>
<path d="M296.416 22H243.584C242.709 22 242 22.6704 242 23.4974V23.5026C242 24.3296 242.709 25 243.584 25H296.416C297.291 25 298 24.3296 298 23.5026V23.4974C298 22.6704 297.291 22 296.416 22Z" fill="#9D9D9E"/>
<path d="M296.416 185H243.584C242.709 185 242 185.894 242 186.997V187.003C242 188.106 242.709 189 243.584 189H296.416C297.291 189 298 188.106 298 187.003V186.997C298 185.894 297.291 185 296.416 185Z" fill="#9D9D9E"/>
<path d="M222.418 106H191.582C190.708 106 190 106.894 190 107.997V108.003C190 109.106 190.708 110 191.582 110H222.418C223.292 110 224 109.106 224 108.003V107.997C224 106.894 223.292 106 222.418 106Z" fill="url(#paint1_linear_1651_16808)"/>
<path d="M296.416 106H243.584C242.709 106 242 106.894 242 107.997V108.003C242 109.106 242.709 110 243.584 110H296.416C297.291 110 298 109.106 298 108.003V107.997C298 106.894 297.291 106 296.416 106Z" fill="url(#paint2_linear_1651_16808)"/>
<path d="M143.609 100H50.391C49.0705 100 48 101.341 48 102.995V103.005C48 104.659 49.0705 106 50.391 106H143.609C144.929 106 146 104.659 146 103.005V102.995C146 101.341 144.929 100 143.609 100Z" fill="url(#paint3_linear_1651_16808)"/>
<path d="M90.4053 113H49.5947C48.714 113 48 113.67 48 114.497V114.503C48 115.33 48.714 116 49.5947 116H90.4053C91.286 116 92 115.33 92 114.503V114.497C92 113.67 91.286 113 90.4053 113Z" fill="#9D9D9E"/>
<path d="M24.5 32C26.9853 32 29 29.9853 29 27.5C29 25.0147 26.9853 23 24.5 23C22.0147 23 20 25.0147 20 27.5C20 29.9853 22.0147 32 24.5 32Z" stroke="#6B7280" stroke-opacity="0.61" stroke-width="2.7" stroke-miterlimit="10"/>
<path d="M24.5 195C26.9853 195 29 192.985 29 190.5C29 188.015 26.9853 186 24.5 186C22.0147 186 20 188.015 20 190.5C20 192.985 22.0147 195 24.5 195Z" stroke="#6B7280" stroke-opacity="0.61" stroke-width="2.7" stroke-miterlimit="10"/>
<path d="M24.5 112C26.9853 112 29 109.985 29 107.5C29 105.015 26.9853 103 24.5 103C22.0147 103 20 105.015 20 107.5C20 109.985 22.0147 112 24.5 112Z" fill="url(#paint4_linear_1651_16808)"/>
<path d="M159 51V83" stroke="#9D9D9E" stroke-width="3"/>
<path d="M159 132V165" stroke="#9D9D9E" stroke-width="3"/>
<defs>
<linearGradient id="paint0_linear_1651_16808" x1="158.5" y1="84" x2="158.5" y2="132" gradientUnits="userSpaceOnUse">
<stop stop-color="#6787F5"/>
<stop offset="1" stop-color="#A996F6"/>
</linearGradient>
<linearGradient id="paint1_linear_1651_16808" x1="207" y1="106" x2="207" y2="110" gradientUnits="userSpaceOnUse">
<stop stop-color="#6787F5"/>
<stop offset="1" stop-color="#A996F6"/>
</linearGradient>
<linearGradient id="paint2_linear_1651_16808" x1="270" y1="106" x2="270" y2="110" gradientUnits="userSpaceOnUse">
<stop stop-color="#6787F5"/>
<stop offset="1" stop-color="#A996F6"/>
</linearGradient>
<linearGradient id="paint3_linear_1651_16808" x1="97" y1="100" x2="97" y2="106" gradientUnits="userSpaceOnUse">
<stop stop-color="#6787F5"/>
<stop offset="1" stop-color="#A996F6"/>
</linearGradient>
<linearGradient id="paint4_linear_1651_16808" x1="24.5" y1="103" x2="24.5" y2="112" gradientUnits="userSpaceOnUse">
<stop stop-color="#6787F5"/>
<stop offset="1" stop-color="#A996F6"/>
</linearGradient>
</defs>
</svg>
