<svg width="309" height="250" viewBox="0 0 309 250" fill="none" xmlns="http://www.w3.org/2000/svg">
<path d="M302.926 21.6455H5.6757C3.78873 21.6455 2.25903 23.1752 2.25903 25.0622V244.583C2.25903 246.47 3.78873 248 5.6757 248H302.926C304.813 248 306.342 246.47 306.342 244.583V25.0622C306.342 23.1752 304.813 21.6455 302.926 21.6455Z" fill="#E1E6EF" fill-opacity="0.38" stroke="#A8A9AC" stroke-width="4" stroke-miterlimit="10"/>
<path d="M150 22H2V248H150V22Z" fill="white" fill-opacity="0.33" stroke="#898989" stroke-opacity="0.66" stroke-width="4" stroke-miterlimit="10"/>
<path d="M148.364 84.9648H3.97583V109.129H148.364V84.9648Z" fill="#E1E6EF" fill-opacity="0.38"/>
<path d="M306 13.6872V22H2.00004V13.6872C1.99905 13.2848 2.01692 12.8826 2.05356 12.4825C2.08568 12.0915 2.1392 11.7004 2.20342 11.3157C2.26844 10.9365 2.35061 10.5618 2.44961 10.193C2.54595 9.82088 2.65834 9.46137 2.78144 9.10817C2.98499 8.58176 3.22112 8.07372 3.48793 7.58814C3.57356 7.42416 3.6592 7.26648 3.75018 7.1088C3.84117 6.95112 3.98032 6.72406 4.10342 6.53485C4.22651 6.34563 4.3175 6.21318 4.42455 6.06181C4.53159 5.91044 4.52623 5.92305 4.57975 5.85998C4.8109 5.54867 5.05753 5.25382 5.31835 4.97698C5.54849 4.731 5.79468 4.49133 6.05158 4.25796C6.30313 4.03721 6.5868 3.82277 6.8437 3.62725L7.21835 3.37496C7.37356 3.26774 7.53412 3.17313 7.69469 3.08483C7.9837 2.92085 8.28342 2.76947 8.58849 2.63702L8.93637 2.49827C9.00227 2.46644 9.0703 2.44112 9.13976 2.42258C9.26821 2.37212 9.39665 2.32797 9.53046 2.29013H9.64286C9.76595 2.25229 9.8837 2.22075 10.0068 2.19552L10.3761 2.11353L10.7454 2.05046L11.1254 2H11.5054H12.0406H296.024H296.559C296.896 2.01743 297.232 2.05744 297.565 2.11984C298.215 2.23788 298.853 2.43227 299.47 2.70009C299.776 2.83255 300.075 2.98392 300.364 3.1479L300.792 3.4065C300.932 3.4948 301.071 3.5894 301.21 3.69032C301.483 3.88584 301.745 4.10028 302.007 4.32103C302.259 4.5544 302.505 4.79407 302.741 5.04005C302.976 5.28603 303.062 5.39956 303.217 5.58877L303.292 5.67707C303.442 5.86629 303.592 6.06181 303.731 6.26364C303.925 6.53646 304.107 6.82065 304.277 7.11511C305.009 8.38402 305.52 9.81188 305.781 11.3157C305.849 11.701 305.899 12.0905 305.93 12.4825C305.972 12.8822 305.996 13.2844 306 13.6872Z" fill="white" fill-opacity="0.33" stroke="#898989" stroke-opacity="0.66" stroke-width="4" stroke-miterlimit="10"/>
<path d="M21.7426 18.1605C24.3183 18.1605 26.4064 16.0725 26.4064 13.4968C26.4064 10.921 24.3183 8.83301 21.7426 8.83301C19.1669 8.83301 17.0789 10.921 17.0789 13.4968C17.0789 16.0725 19.1669 18.1605 21.7426 18.1605Z" fill="#1578E7"/>
<path d="M37.9377 18.1605C40.5134 18.1605 42.6014 16.0725 42.6014 13.4968C42.6014 10.921 40.5134 8.83301 37.9377 8.83301C35.362 8.83301 33.2739 10.921 33.2739 13.4968C33.2739 16.0725 35.362 18.1605 37.9377 18.1605Z" fill="#1578E7"/>
<path d="M54.1411 18.1605C56.7168 18.1605 58.8048 16.0725 58.8048 13.4968C58.8048 10.921 56.7168 8.83301 54.1411 8.83301C51.5653 8.83301 49.4773 10.921 49.4773 13.4968C49.4773 16.0725 51.5653 18.1605 54.1411 18.1605Z" fill="#1578E7"/>
<path d="M97.3418 93H23.6582C21.6378 93 20 94.7878 20 96.9931V97.0069C20 99.2122 21.6378 101 23.6582 101H97.3418C99.3622 101 101 99.2122 101 97.0069V96.9931C101 94.7878 99.3622 93 97.3418 93Z" fill="url(#paint0_linear_1651_16792)"/>
<path d="M56.9427 142.895H23.0408C21.6775 142.895 20.5723 144 20.5723 145.363V145.372C20.5723 146.735 21.6775 147.84 23.0408 147.84H56.9427C58.306 147.84 59.4112 146.735 59.4112 145.372V145.363C59.4112 144 58.306 142.895 56.9427 142.895Z" fill="#898989" fill-opacity="0.66"/>
<path d="M39.996 191.215H23.0408C21.6775 191.215 20.5723 192.32 20.5723 193.683V193.692C20.5723 195.055 21.6775 196.16 23.0408 196.16H39.996C41.3593 196.16 42.4646 195.055 42.4646 193.692V193.683C42.4646 192.32 41.3593 191.215 39.996 191.215Z" fill="#898989" fill-opacity="0.66"/>
<path d="M39.996 230.062H23.0408C21.6775 230.062 20.5723 231.168 20.5723 232.531V232.54C20.5723 233.903 21.6775 235.008 23.0408 235.008H39.996C41.3593 235.008 42.4646 233.903 42.4646 232.54V232.531C42.4646 231.168 41.3593 230.062 39.996 230.062Z" fill="#898989" fill-opacity="0.66"/>
<path d="M89.5121 118.739H23.0408C21.6775 118.739 20.5723 119.844 20.5723 121.207V121.216C20.5723 122.579 21.6775 123.684 23.0408 123.684H89.5121C90.8754 123.684 91.9806 122.579 91.9806 121.216V121.207C91.9806 119.844 90.8754 118.739 89.5121 118.739Z" fill="#898989" fill-opacity="0.66"/>
<path d="M89.5121 167.059H23.0408C21.6775 167.059 20.5723 168.164 20.5723 169.528V169.536C20.5723 170.899 21.6775 172.005 23.0408 172.005H89.5121C90.8754 172.005 91.9806 170.899 91.9806 169.536V169.528C91.9806 168.164 90.8754 167.059 89.5121 167.059Z" fill="#898989" fill-opacity="0.66"/>
<path d="M3.9759 84.9648H1.60986V109.129H3.9759V84.9648Z" fill="url(#paint1_linear_1651_16792)"/>
<path d="M30.5491 73.7417C36.2383 73.7417 40.8503 69.1296 40.8503 63.4404C40.8503 57.7512 36.2383 53.1392 30.5491 53.1392C24.8598 53.1392 20.2478 57.7512 20.2478 63.4404C20.2478 69.1296 24.8598 73.7417 30.5491 73.7417Z" fill="#AFB1B8" fill-opacity="0.7"/>
<defs>
<linearGradient id="paint0_linear_1651_16792" x1="60.5" y1="93" x2="60.5" y2="101" gradientUnits="userSpaceOnUse">
<stop stop-color="#6787F5"/>
<stop offset="1" stop-color="#259BF5"/>
</linearGradient>
<linearGradient id="paint1_linear_1651_16792" x1="2.79288" y1="84.9648" x2="2.79288" y2="109.129" gradientUnits="userSpaceOnUse">
<stop stop-color="#6787F5"/>
<stop offset="1" stop-color="#259BF5"/>
</linearGradient>
</defs>
</svg>
