<svg width="312" height="222" viewBox="0 0 312 222" fill="none" xmlns="http://www.w3.org/2000/svg">
<path d="M304.583 33H7.41667C5.52969 33 4 34.5297 4 36.4167V214.583C4 216.47 5.52968 218 7.41665 218H304.583C306.47 218 308 216.47 308 214.583V36.4167C308 34.5297 306.47 33 304.583 33Z" fill="#E1E6EF" fill-opacity="0.27" stroke="#757575" stroke-width="8" stroke-miterlimit="10"/>
<path d="M224 33H4V218H224V33Z" fill="white" fill-opacity="0.21" stroke="#757575" stroke-width="8" stroke-miterlimit="10"/>
<path d="M148 96H14V120H148V96Z" fill="#E1E6EF" fill-opacity="0.27"/>
<path d="M308 15.6872V33H4.00004V15.6872C3.99905 15.2848 4.01692 14.8826 4.05356 14.4825C4.08568 14.0915 4.1392 13.7004 4.20342 13.3157C4.26844 12.9365 4.35061 12.5618 4.44961 12.193C4.54595 11.8209 4.65834 11.4614 4.78144 11.1082C4.98499 10.5818 5.22112 10.0737 5.48793 9.58814C5.57356 9.42416 5.6592 9.26648 5.75018 9.1088C5.84117 8.95112 5.98032 8.72406 6.10342 8.53485C6.22651 8.34563 6.3175 8.21318 6.42455 8.06181C6.53159 7.91044 6.52623 7.92305 6.57975 7.85998C6.8109 7.54867 7.05753 7.25382 7.31835 6.97698C7.54849 6.731 7.79468 6.49133 8.05158 6.25796C8.30313 6.03721 8.5868 5.82277 8.8437 5.62725L9.21835 5.37496C9.37356 5.26774 9.53412 5.17313 9.69469 5.08483C9.9837 4.92085 10.2834 4.76947 10.5885 4.63702L10.9364 4.49827C11.0023 4.46644 11.0703 4.44112 11.1398 4.42258C11.2682 4.37212 11.3967 4.32797 11.5305 4.29013H11.6429C11.766 4.25229 11.8837 4.22075 12.0068 4.19552L12.3761 4.11353L12.7454 4.05046L13.1254 4H13.5054H14.0406H298.024H298.559C298.896 4.01743 299.232 4.05744 299.565 4.11984C300.215 4.23788 300.853 4.43227 301.47 4.70009C301.776 4.83255 302.075 4.98392 302.364 5.1479L302.792 5.4065C302.932 5.4948 303.071 5.5894 303.21 5.69032C303.483 5.88584 303.745 6.10028 304.007 6.32103C304.259 6.5544 304.505 6.79407 304.741 7.04005C304.976 7.28603 305.062 7.39956 305.217 7.58877L305.292 7.67707C305.442 7.86629 305.592 8.06181 305.731 8.26364C305.925 8.53646 306.107 8.82065 306.277 9.11511C307.009 10.384 307.52 11.8119 307.781 13.3157C307.849 13.701 307.899 14.0905 307.93 14.4825C307.972 14.8822 307.996 15.2844 308 15.6872Z" fill="white" fill-opacity="0.21" stroke="#757575" stroke-width="8" stroke-miterlimit="10"/>
<path d="M23.7426 23.3275C26.3183 23.3275 28.4064 21.2395 28.4064 18.6637C28.4064 16.088 26.3183 14 23.7426 14C21.1669 14 19.0789 16.088 19.0789 18.6637C19.0789 21.2395 21.1669 23.3275 23.7426 23.3275Z" fill="#1578E7"/>
<path d="M39.9377 23.3275C42.5134 23.3275 44.6014 21.2395 44.6014 18.6637C44.6014 16.088 42.5134 14 39.9377 14C37.362 14 35.2739 16.088 35.2739 18.6637C35.2739 21.2395 37.362 23.3275 39.9377 23.3275Z" fill="#1578E7"/>
<path d="M56.1411 23.3275C58.7168 23.3275 60.8048 21.2395 60.8048 18.6637C60.8048 16.088 58.7168 14 56.1411 14C53.5653 14 51.4773 16.088 51.4773 18.6637C51.4773 21.2395 53.5653 23.3275 56.1411 23.3275Z" fill="#1578E7"/>
<path d="M130.851 104H27.1486C24.3051 104 22 105.788 22 107.993V108.007C22 110.212 24.3051 112 27.1486 112H130.851C133.695 112 136 110.212 136 108.007V107.993C136 105.788 133.695 104 130.851 104Z" fill="url(#paint0_linear_1655_16842)"/>
<path d="M74.0765 187.973H26.068C24.1373 187.973 22.5723 189.09 22.5723 190.468V190.477C22.5723 191.855 24.1373 192.973 26.068 192.973H74.0765C76.0072 192.973 77.5723 191.855 77.5723 190.477V190.468C77.5723 189.09 76.0072 187.973 74.0765 187.973Z" fill="#757575"/>
<path d="M121.046 163.973H26.0983C24.1509 163.973 22.5723 165.09 22.5723 166.468V166.477C22.5723 167.855 24.1509 168.973 26.0983 168.973H121.046C122.994 168.973 124.572 167.855 124.572 166.477V166.468C124.572 165.09 122.994 163.973 121.046 163.973Z" fill="#757575"/>
<path d="M121.046 138.973H26.0983C24.1509 138.973 22.5723 140.09 22.5723 141.468V141.477C22.5723 142.855 24.1509 143.973 26.0983 143.973H121.046C122.994 143.973 124.572 142.855 124.572 141.477V141.468C124.572 140.09 122.994 138.973 121.046 138.973Z" fill="#757575"/>
<path d="M15 96H8V120H15V96Z" fill="url(#paint1_linear_1655_16842)"/>
<path d="M38 85C46.8366 85 54 77.8366 54 69C54 60.1635 46.8366 53 38 53C29.1634 53 22 60.1635 22 69C22 77.8366 29.1634 85 38 85Z" fill="#AFB1B8" fill-opacity="0.7"/>
<defs>
<linearGradient id="paint0_linear_1655_16842" x1="79" y1="104" x2="79" y2="112" gradientUnits="userSpaceOnUse">
<stop stop-color="#6787F5"/>
<stop offset="1" stop-color="#259BF5"/>
</linearGradient>
<linearGradient id="paint1_linear_1655_16842" x1="11.5" y1="96" x2="11.5" y2="120" gradientUnits="userSpaceOnUse">
<stop stop-color="#6787F5"/>
<stop offset="1" stop-color="#259BF5"/>
</linearGradient>
</defs>
</svg>
