<svg width="331" height="278" viewBox="0 0 331 278" fill="none" xmlns="http://www.w3.org/2000/svg">
<path d="M210.24 0H134.39C132.794 0 131.5 1.2939 131.5 2.89V2.89999C131.5 4.4961 132.794 5.78999 134.39 5.78999H210.24C211.836 5.78999 213.13 4.4961 213.13 2.89999V2.89C213.13 1.2939 211.836 0 210.24 0Z" fill="#7C7C7C" fill-opacity="0.21"/>
<path d="M83.4799 0H30.58C28.9839 0 27.6899 1.2939 27.6899 2.89V2.89999C27.6899 4.4961 28.9839 5.78999 30.58 5.78999H83.4799C85.0761 5.78999 86.37 4.4961 86.37 2.89999V2.89C86.37 1.2939 85.0761 0 83.4799 0Z" fill="#7C7C7C" fill-opacity="0.21"/>
<path d="M102.79 20.1899H30.58C28.9839 20.1899 27.6899 21.4838 27.6899 23.0799V23.0899C27.6899 24.686 28.9839 25.9799 30.58 25.9799H102.79C104.386 25.9799 105.68 24.686 105.68 23.0899V23.0799C105.68 21.4838 104.386 20.1899 102.79 20.1899Z" fill="#7C7C7C" fill-opacity="0.21"/>
<path d="M156.51 20.1899H116.53C114.934 20.1899 113.64 21.4838 113.64 23.0799V23.0899C113.64 24.686 114.934 25.9799 116.53 25.9799H156.51C158.106 25.9799 159.4 24.686 159.4 23.0899V23.0799C159.4 21.4838 158.106 20.1899 156.51 20.1899Z" fill="#7C7C7C" fill-opacity="0.21"/>
<path d="M236.53 0H224.82C223.224 0 221.93 1.2939 221.93 2.89V2.89999C221.93 4.4961 223.224 5.78999 224.82 5.78999H236.53C238.126 5.78999 239.42 4.4961 239.42 2.89999V2.89C239.42 1.2939 238.126 0 236.53 0Z" fill="#7C7C7C" fill-opacity="0.21"/>
<path d="M182.31 20.1899H170.6C169.004 20.1899 167.71 21.4838 167.71 23.0799V23.0899C167.71 24.686 169.004 25.9799 170.6 25.9799H182.31C183.906 25.9799 185.2 24.686 185.2 23.0899V23.0799C185.2 21.4838 183.906 20.1899 182.31 20.1899Z" fill="#7C7C7C" fill-opacity="0.21"/>
<path d="M182.78 107.43H171.07C169.474 107.43 168.18 108.724 168.18 110.32V110.33C168.18 111.926 169.474 113.22 171.07 113.22H182.78C184.376 113.22 185.67 111.926 185.67 110.33V110.32C185.67 108.724 184.376 107.43 182.78 107.43Z" fill="#7C7C7C" fill-opacity="0.21"/>
<path d="M255.98 133.2H238.5C236.904 133.2 235.61 134.494 235.61 136.09V136.1C235.61 137.696 236.904 138.99 238.5 138.99H255.98C257.576 138.99 258.87 137.696 258.87 136.1V136.09C258.87 134.494 257.576 133.2 255.98 133.2Z" fill="#7C7C7C" fill-opacity="0.21"/>
<path d="M300.67 133.2H281.78C280.184 133.2 278.89 134.494 278.89 136.09V136.1C278.89 137.696 280.184 138.99 281.78 138.99H300.67C302.266 138.99 303.56 137.696 303.56 136.1V136.09C303.56 134.494 302.266 133.2 300.67 133.2Z" fill="#7C7C7C" fill-opacity="0.21"/>
<path d="M229.22 159.34H216.07C214.474 159.34 213.18 160.634 213.18 162.23V162.24C213.18 163.836 214.474 165.13 216.07 165.13H229.22C230.816 165.13 232.11 163.836 232.11 162.24V162.23C232.11 160.634 230.816 159.34 229.22 159.34Z" fill="#7C7C7C" fill-opacity="0.21"/>
<path d="M182.78 272.06H171.07C169.474 272.06 168.18 273.354 168.18 274.95V274.96C168.18 276.556 169.474 277.85 171.07 277.85H182.78C184.376 277.85 185.67 276.556 185.67 274.96V274.95C185.67 273.354 184.376 272.06 182.78 272.06Z" fill="#7C7C7C" fill-opacity="0.21"/>
<path d="M118.62 86.54H99.0401C97.444 86.54 96.1501 87.834 96.1501 89.4301V89.44C96.1501 91.0361 97.444 92.33 99.0401 92.33H118.62C120.216 92.33 121.51 91.0361 121.51 89.44V89.4301C121.51 87.834 120.216 86.54 118.62 86.54Z" fill="#7C7C7C" fill-opacity="0.21"/>
<path d="M112.56 159.34H94.7401C93.144 159.34 91.8501 160.634 91.8501 162.23V162.24C91.8501 163.836 93.144 165.13 94.7401 165.13H112.56C114.156 165.13 115.45 163.836 115.45 162.24V162.23C115.45 160.634 114.156 159.34 112.56 159.34Z" fill="#7C7C7C" fill-opacity="0.21"/>
<path d="M48.97 185.49H29.39C27.7939 185.49 26.5 186.784 26.5 188.38V188.39C26.5 189.986 27.7939 191.28 29.39 191.28H48.97C50.5661 191.28 51.86 189.986 51.86 188.39V188.38C51.86 186.784 50.5661 185.49 48.97 185.49Z" fill="#7C7C7C" fill-opacity="0.21"/>
<path d="M255.97 185.49H236.39C234.794 185.49 233.5 186.784 233.5 188.38V188.39C233.5 189.986 234.794 191.28 236.39 191.28H255.97C257.566 191.28 258.86 189.986 258.86 188.39V188.38C258.86 186.784 257.566 185.49 255.97 185.49Z" fill="#7C7C7C" fill-opacity="0.21"/>
<path d="M301.36 185.49H281.78C280.184 185.49 278.89 186.784 278.89 188.38V188.39C278.89 189.986 280.184 191.28 281.78 191.28H301.36C302.956 191.28 304.25 189.986 304.25 188.39V188.38C304.25 186.784 302.956 185.49 301.36 185.49Z" fill="#7C7C7C" fill-opacity="0.21"/>
<path d="M119.9 250.2H100.32C98.7241 250.2 97.4302 251.494 97.4302 253.09V253.1C97.4302 254.696 98.7241 255.99 100.32 255.99H119.9C121.496 255.99 122.79 254.696 122.79 253.1V253.09C122.79 251.494 121.496 250.2 119.9 250.2Z" fill="#7C7C7C" fill-opacity="0.21"/>
<path d="M236.47 250.2H223.71C222.114 250.2 220.82 251.494 220.82 253.09V253.1C220.82 254.696 222.114 255.99 223.71 255.99H236.47C238.066 255.99 239.36 254.696 239.36 253.1V253.09C239.36 251.494 238.066 250.2 236.47 250.2Z" fill="#7C7C7C" fill-opacity="0.21"/>
<path d="M48.97 133.2H29.39C27.7939 133.2 26.5 134.494 26.5 136.09V136.1C26.5 137.696 27.7939 138.99 29.39 138.99H48.97C50.5661 138.99 51.86 137.696 51.86 136.1V136.09C51.86 134.494 50.5661 133.2 48.97 133.2Z" fill="#7C7C7C" fill-opacity="0.21"/>
<path d="M120.03 0H99.2501C97.654 0 96.3601 1.2939 96.3601 2.89V2.89999C96.3601 4.4961 97.654 5.78999 99.2501 5.78999H120.03C121.626 5.78999 122.92 4.4961 122.92 2.89999V2.89C122.92 1.2939 121.626 0 120.03 0Z" fill="#7C7C7C" fill-opacity="0.21"/>
<path d="M103.84 107.43H29.5302C27.934 107.43 26.6401 108.724 26.6401 110.32V110.33C26.6401 111.926 27.934 113.22 29.5302 113.22H103.84C105.436 113.22 106.73 111.926 106.73 110.33V110.32C106.73 108.724 105.436 107.43 103.84 107.43Z" fill="#7C7C7C" fill-opacity="0.21"/>
<path d="M210.55 133.2H137.97C136.374 133.2 135.08 134.494 135.08 136.09V136.1C135.08 137.696 136.374 138.99 137.97 138.99H210.55C212.146 138.99 213.44 137.696 213.44 136.1V136.09C213.44 134.494 212.146 133.2 210.55 133.2Z" fill="#7C7C7C" fill-opacity="0.21"/>
<path d="M210.54 185.49H136.5C134.904 185.49 133.61 186.784 133.61 188.38V188.39C133.61 189.986 134.904 191.28 136.5 191.28H210.54C212.136 191.28 213.43 189.986 213.43 188.39V188.38C213.43 186.784 212.136 185.49 210.54 185.49Z" fill="#7C7C7C" fill-opacity="0.21"/>
<path d="M209.34 250.2H135.3C133.704 250.2 132.41 251.494 132.41 253.09V253.1C132.41 254.696 133.704 255.99 135.3 255.99H209.34C210.936 255.99 212.23 254.696 212.23 253.1V253.09C212.23 251.494 210.936 250.2 209.34 250.2Z" fill="#7C7C7C" fill-opacity="0.21"/>
<path d="M84.92 250.2H29.66C28.0639 250.2 26.77 251.494 26.77 253.09V253.1C26.77 254.696 28.0639 255.99 29.66 255.99H84.92C86.5161 255.99 87.81 254.696 87.81 253.1V253.09C87.81 251.494 86.5161 250.2 84.92 250.2Z" fill="#7C7C7C" fill-opacity="0.21"/>
<path d="M103.7 272.06H29.66C28.0639 272.06 26.77 273.354 26.77 274.95V274.96C26.77 276.556 28.0639 277.85 29.66 277.85H103.7C105.296 277.85 106.59 276.556 106.59 274.96V274.95C106.59 273.354 105.296 272.06 103.7 272.06Z" fill="#7C7C7C" fill-opacity="0.21"/>
<path d="M84.92 86.54H29.39C27.7939 86.54 26.5 87.834 26.5 89.4301V89.44C26.5 91.0361 27.7939 92.33 29.39 92.33H84.92C86.5161 92.33 87.81 91.0361 87.81 89.44V89.4301C87.81 87.834 86.5161 86.54 84.92 86.54Z" fill="#7C7C7C" fill-opacity="0.21"/>
<path d="M156.51 107.43H116.53C114.934 107.43 113.64 108.724 113.64 110.32V110.33C113.64 111.926 114.934 113.22 116.53 113.22H156.51C158.106 113.22 159.4 111.926 159.4 110.33V110.32C159.4 108.724 158.106 107.43 156.51 107.43Z" fill="#7C7C7C" fill-opacity="0.21"/>
<path d="M113.64 133.2H76.16C74.5639 133.2 73.27 134.494 73.27 136.09V136.1C73.27 137.696 74.5639 138.99 76.16 138.99H113.64C115.236 138.99 116.53 137.696 116.53 136.1V136.09C116.53 134.494 115.236 133.2 113.64 133.2Z" fill="#7C7C7C" fill-opacity="0.21"/>
<path d="M69.64 158.91H29.66C28.0639 158.91 26.77 160.204 26.77 161.8V161.81C26.77 163.406 28.0639 164.7 29.66 164.7H69.64C71.2361 164.7 72.53 163.406 72.53 161.81V161.8C72.53 160.204 71.2361 158.91 69.64 158.91Z" fill="#7C7C7C" fill-opacity="0.21"/>
<path d="M188.82 158.91H139.41C137.814 158.91 136.52 160.204 136.52 161.8V161.81C136.52 163.406 137.814 164.7 139.41 164.7H188.82C190.416 164.7 191.71 163.406 191.71 161.81V161.8C191.71 160.204 190.416 158.91 188.82 158.91Z" fill="#7C7C7C" fill-opacity="0.21"/>
<path d="M113.82 185.49H73.8402C72.2441 185.49 70.9502 186.784 70.9502 188.38V188.39C70.9502 189.986 72.2441 191.28 73.8402 191.28H113.82C115.416 191.28 116.71 189.986 116.71 188.39V188.38C116.71 186.784 115.416 185.49 113.82 185.49Z" fill="#7C7C7C" fill-opacity="0.21"/>
<path d="M159.33 272.06H119.35C117.754 272.06 116.46 273.354 116.46 274.95V274.96C116.46 276.556 117.754 277.85 119.35 277.85H159.33C160.926 277.85 162.22 276.556 162.22 274.96V274.95C162.22 273.354 160.926 272.06 159.33 272.06Z" fill="#7C7C7C" fill-opacity="0.21"/>
<path d="M145.73 86.54H132.94C131.344 86.54 130.05 87.834 130.05 89.4301V89.44C130.05 91.0361 131.344 92.33 132.94 92.33H145.73C147.326 92.33 148.62 91.0361 148.62 89.44V89.4301C148.62 87.834 147.326 86.54 145.73 86.54Z" fill="#7C7C7C" fill-opacity="0.21"/>
<path d="M322.13 60.1299H8.8501C4.70796 60.1299 1.3501 63.4877 1.3501 67.6299V209.49C1.3501 213.632 4.70796 216.99 8.8501 216.99H322.13C326.272 216.99 329.63 213.632 329.63 209.49V67.6299C329.63 63.4877 326.272 60.1299 322.13 60.1299Z" stroke="#757879" stroke-opacity="0.16" stroke-width="2.7" stroke-miterlimit="10"/>
</svg>
