<svg width="156" height="31" viewBox="0 0 156 31" fill="none" xmlns="http://www.w3.org/2000/svg">
<g clip-path="url(#clip0_1788_2645)">
<path d="M151 0.82959H5C2.51472 0.82959 0.5 2.84431 0.5 5.32959V25.3296C0.5 27.8149 2.51472 29.8296 5 29.8296H151C153.485 29.8296 155.5 27.8149 155.5 25.3296V5.32959C155.5 2.84431 153.485 0.82959 151 0.82959Z" fill="#F1F3F5"/>
<path d="M151 0.82959H5C2.51472 0.82959 0.5 2.84431 0.5 5.32959V25.3296C0.5 27.8149 2.51472 29.8296 5 29.8296H151C153.485 29.8296 155.5 27.8149 155.5 25.3296V5.32959C155.5 2.84431 153.485 0.82959 151 0.82959Z" stroke="#E6E8EB"/>
<path d="M43.692 20.12C43.092 20.12 42.536 20.012 42.024 19.796C41.512 19.572 41.068 19.264 40.692 18.872C40.324 18.472 40.036 18 39.828 17.456C39.62 16.912 39.516 16.316 39.516 15.668C39.516 15.02 39.616 14.428 39.816 13.892C40.024 13.348 40.312 12.88 40.68 12.488C41.056 12.088 41.5 11.78 42.012 11.564C42.524 11.348 43.08 11.24 43.68 11.24C44.352 11.24 44.956 11.376 45.492 11.648C46.028 11.912 46.464 12.288 46.8 12.776C47.144 13.264 47.356 13.832 47.436 14.48H46.188C46.084 13.8 45.808 13.272 45.36 12.896C44.92 12.512 44.364 12.32 43.692 12.32C43.124 12.32 42.62 12.46 42.18 12.74C41.748 13.012 41.412 13.4 41.172 13.904C40.932 14.4 40.812 14.988 40.812 15.668C40.812 16.34 40.932 16.932 41.172 17.444C41.42 17.948 41.76 18.34 42.192 18.62C42.624 18.9 43.124 19.04 43.692 19.04C44.364 19.04 44.924 18.852 45.372 18.476C45.828 18.092 46.104 17.56 46.2 16.88H47.46C47.372 17.536 47.156 18.108 46.812 18.596C46.468 19.076 46.028 19.452 45.492 19.724C44.964 19.988 44.364 20.12 43.692 20.12ZM51.4345 20.12C50.8105 20.12 50.2625 19.984 49.7905 19.712C49.3185 19.432 48.9505 19.052 48.6865 18.572C48.4225 18.084 48.2905 17.532 48.2905 16.916C48.2905 16.292 48.4225 15.744 48.6865 15.272C48.9585 14.8 49.3265 14.432 49.7905 14.168C50.2625 13.896 50.8105 13.76 51.4345 13.76C52.0665 13.76 52.6185 13.896 53.0905 14.168C53.5625 14.432 53.9265 14.8 54.1825 15.272C54.4465 15.744 54.5785 16.292 54.5785 16.916C54.5785 17.532 54.4465 18.084 54.1825 18.572C53.9265 19.052 53.5625 19.432 53.0905 19.712C52.6185 19.984 52.0665 20.12 51.4345 20.12ZM51.4345 19.1C51.8105 19.1 52.1345 19.008 52.4065 18.824C52.6865 18.64 52.9065 18.384 53.0665 18.056C53.2265 17.728 53.3065 17.344 53.3065 16.904C53.3065 16.248 53.1305 15.732 52.7785 15.356C52.4345 14.972 51.9865 14.78 51.4345 14.78C50.8905 14.78 50.4425 14.972 50.0905 15.356C49.7465 15.74 49.5745 16.256 49.5745 16.904C49.5745 17.344 49.6505 17.728 49.8025 18.056C49.9625 18.384 50.1825 18.64 50.4625 18.824C50.7505 19.008 51.0745 19.1 51.4345 19.1ZM55.8604 20V13.88H57.0484V15.32H57.1084V20H55.8604ZM60.2044 20V16.064C60.2044 15.64 60.0964 15.324 59.8804 15.116C59.6724 14.908 59.3604 14.804 58.9444 14.804C58.5844 14.804 58.2644 14.884 57.9844 15.044C57.7124 15.204 57.4964 15.424 57.3364 15.704C57.1844 15.984 57.1084 16.316 57.1084 16.7L56.9524 15.236C57.1524 14.78 57.4604 14.42 57.8764 14.156C58.2924 13.892 58.7764 13.76 59.3284 13.76C59.9844 13.76 60.5004 13.944 60.8764 14.312C61.2524 14.68 61.4404 15.168 61.4404 15.776V20H60.2044ZM63.1377 20V13.88H64.3257V15.32H64.3857V20H63.1377ZM67.4817 20V16.064C67.4817 15.64 67.3737 15.324 67.1577 15.116C66.9497 14.908 66.6377 14.804 66.2217 14.804C65.8617 14.804 65.5417 14.884 65.2617 15.044C64.9897 15.204 64.7737 15.424 64.6137 15.704C64.4617 15.984 64.3857 16.316 64.3857 16.7L64.2297 15.236C64.4297 14.78 64.7377 14.42 65.1537 14.156C65.5697 13.892 66.0537 13.76 66.6057 13.76C67.2617 13.76 67.7777 13.944 68.1537 14.312C68.5297 14.68 68.7177 15.168 68.7177 15.776V20H67.4817ZM73.0551 20.12C72.4391 20.12 71.8951 19.984 71.4231 19.712C70.9591 19.44 70.5951 19.064 70.3311 18.584C70.0671 18.104 69.9351 17.552 69.9351 16.928C69.9351 16.296 70.0631 15.744 70.3191 15.272C70.5831 14.792 70.9511 14.42 71.4231 14.156C71.8951 13.892 72.4351 13.76 73.0431 13.76C73.6351 13.76 74.1471 13.888 74.5791 14.144C75.0191 14.392 75.3551 14.74 75.5871 15.188C75.8271 15.636 75.9471 16.168 75.9471 16.784C75.9471 16.88 75.9431 16.972 75.9351 17.06C75.9351 17.14 75.9271 17.224 75.9111 17.312H70.7751V16.376H75.0351L74.7231 16.748C74.7231 16.092 74.5751 15.592 74.2791 15.248C73.9831 14.904 73.5711 14.732 73.0431 14.732C72.4751 14.732 72.0231 14.928 71.6871 15.32C71.3591 15.704 71.1951 16.24 71.1951 16.928C71.1951 17.624 71.3591 18.168 71.6871 18.56C72.0231 18.952 72.4871 19.148 73.0791 19.148C73.4391 19.148 73.7511 19.076 74.0151 18.932C74.2791 18.78 74.4751 18.56 74.6031 18.272H75.7791C75.5791 18.848 75.2391 19.3 74.7591 19.628C74.2871 19.956 73.7191 20.12 73.0551 20.12ZM79.8028 20.12C79.2188 20.12 78.6988 19.984 78.2428 19.712C77.7868 19.432 77.4268 19.052 77.1628 18.572C76.9068 18.092 76.7788 17.544 76.7788 16.928C76.7788 16.312 76.9068 15.768 77.1628 15.296C77.4268 14.816 77.7868 14.44 78.2428 14.168C78.6988 13.896 79.2148 13.76 79.7908 13.76C80.2788 13.76 80.7148 13.852 81.0988 14.036C81.4828 14.22 81.7988 14.476 82.0468 14.804C82.2948 15.132 82.4548 15.52 82.5268 15.968H81.3508C81.2708 15.608 81.0948 15.32 80.8228 15.104C80.5588 14.888 80.2228 14.78 79.8148 14.78C79.4628 14.78 79.1548 14.868 78.8908 15.044C78.6268 15.22 78.4228 15.468 78.2788 15.788C78.1348 16.108 78.0628 16.488 78.0628 16.928C78.0628 17.36 78.1348 17.74 78.2788 18.068C78.4228 18.396 78.6268 18.652 78.8908 18.836C79.1548 19.012 79.4668 19.1 79.8268 19.1C80.2188 19.1 80.5508 18.996 80.8228 18.788C81.1028 18.572 81.2828 18.284 81.3628 17.924H82.5388C82.4588 18.364 82.2908 18.748 82.0348 19.076C81.7868 19.404 81.4708 19.66 81.0868 19.844C80.7028 20.028 80.2748 20.12 79.8028 20.12ZM86.3316 20.12C85.6196 20.12 85.0956 19.956 84.7596 19.628C84.4316 19.292 84.2676 18.8 84.2676 18.152V12.476L85.5036 12.008V18.164C85.5036 18.484 85.5876 18.72 85.7556 18.872C85.9236 19.024 86.1956 19.1 86.5716 19.1C86.7156 19.1 86.8436 19.088 86.9556 19.064C87.0676 19.04 87.1636 19.012 87.2436 18.98V19.988C87.1556 20.028 87.0316 20.06 86.8716 20.084C86.7116 20.108 86.5316 20.12 86.3316 20.12ZM83.0436 14.876V13.88H87.2436V14.876H83.0436ZM93.398 20.12C92.686 20.12 92.162 19.956 91.826 19.628C91.498 19.292 91.334 18.8 91.334 18.152V12.476L92.57 12.008V18.164C92.57 18.484 92.654 18.72 92.822 18.872C92.99 19.024 93.262 19.1 93.638 19.1C93.782 19.1 93.91 19.088 94.022 19.064C94.134 19.04 94.23 19.012 94.31 18.98V19.988C94.222 20.028 94.098 20.06 93.938 20.084C93.778 20.108 93.598 20.12 93.398 20.12ZM90.11 14.876V13.88H94.31V14.876H90.11ZM97.9931 20.12C97.3691 20.12 96.8211 19.984 96.3491 19.712C95.8771 19.432 95.5091 19.052 95.2451 18.572C94.9811 18.084 94.8491 17.532 94.8491 16.916C94.8491 16.292 94.9811 15.744 95.2451 15.272C95.5171 14.8 95.8851 14.432 96.3491 14.168C96.8211 13.896 97.3691 13.76 97.9931 13.76C98.6251 13.76 99.1771 13.896 99.6491 14.168C100.121 14.432 100.485 14.8 100.741 15.272C101.005 15.744 101.137 16.292 101.137 16.916C101.137 17.532 101.005 18.084 100.741 18.572C100.485 19.052 100.121 19.432 99.6491 19.712C99.1771 19.984 98.6251 20.12 97.9931 20.12ZM97.9931 19.1C98.3691 19.1 98.6931 19.008 98.9651 18.824C99.2451 18.64 99.4651 18.384 99.6251 18.056C99.7851 17.728 99.8651 17.344 99.8651 16.904C99.8651 16.248 99.6891 15.732 99.3371 15.356C98.9931 14.972 98.5451 14.78 97.9931 14.78C97.4491 14.78 97.0011 14.972 96.6491 15.356C96.3051 15.74 96.1331 16.256 96.1331 16.904C96.1331 17.344 96.2091 17.728 96.3611 18.056C96.5211 18.384 96.7411 18.64 97.0211 18.824C97.3091 19.008 97.6331 19.1 97.9931 19.1ZM108.818 20.12C107.914 20.12 107.134 19.94 106.478 19.58C105.822 19.212 105.314 18.7 104.954 18.044C104.602 17.388 104.426 16.616 104.426 15.728C104.426 14.848 104.602 14.072 104.954 13.4C105.314 12.72 105.81 12.192 106.442 11.816C107.074 11.432 107.802 11.24 108.626 11.24C109.282 11.24 109.874 11.364 110.402 11.612C110.938 11.852 111.374 12.188 111.71 12.62C112.054 13.052 112.258 13.552 112.322 14.12H111.05C110.97 13.568 110.714 13.132 110.282 12.812C109.85 12.484 109.31 12.32 108.662 12.32C108.07 12.32 107.554 12.46 107.114 12.74C106.674 13.02 106.33 13.412 106.082 13.916C105.842 14.42 105.722 15.016 105.722 15.704C105.722 16.4 105.846 17 106.094 17.504C106.342 18 106.702 18.384 107.174 18.656C107.654 18.92 108.23 19.052 108.902 19.052C109.382 19.052 109.806 18.984 110.174 18.848C110.542 18.712 110.862 18.512 111.134 18.248L112.37 18.716C111.922 19.18 111.406 19.532 110.822 19.772C110.238 20.004 109.57 20.12 108.818 20.12ZM111.098 18.716V16.064L111.47 16.436H108.89V15.38H112.37V18.716H111.098ZM113.927 20V13.88H115.175V20H113.927ZM113.867 12.68V11.276H115.247V12.68H113.867ZM119.484 20.12C118.772 20.12 118.248 19.956 117.912 19.628C117.584 19.292 117.42 18.8 117.42 18.152V12.476L118.656 12.008V18.164C118.656 18.484 118.74 18.72 118.908 18.872C119.076 19.024 119.348 19.1 119.724 19.1C119.868 19.1 119.996 19.088 120.108 19.064C120.22 19.04 120.316 19.012 120.396 18.98V19.988C120.308 20.028 120.184 20.06 120.024 20.084C119.864 20.108 119.684 20.12 119.484 20.12ZM116.196 14.876V13.88H120.396V14.876H116.196ZM121.579 20V11.36H122.827V20H121.579ZM125.923 20V16.064C125.923 15.64 125.815 15.324 125.599 15.116C125.391 14.908 125.079 14.804 124.663 14.804C124.303 14.804 123.983 14.884 123.703 15.044C123.431 15.204 123.215 15.424 123.055 15.704C122.903 15.984 122.827 16.316 122.827 16.7L122.671 15.236C122.871 14.78 123.179 14.42 123.595 14.156C124.011 13.892 124.495 13.76 125.047 13.76C125.703 13.76 126.219 13.944 126.595 14.312C126.971 14.68 127.159 15.168 127.159 15.776V20H125.923ZM130.778 20.12C130.37 20.12 130.01 20.036 129.698 19.868C129.386 19.692 129.142 19.452 128.966 19.148C128.798 18.844 128.714 18.496 128.714 18.104V13.88H129.962V17.816C129.962 18.24 130.066 18.556 130.274 18.764C130.482 18.972 130.778 19.076 131.162 19.076C131.506 19.076 131.81 18.996 132.074 18.836C132.346 18.676 132.558 18.456 132.71 18.176C132.87 17.888 132.95 17.556 132.95 17.18L133.106 18.644C132.906 19.092 132.598 19.452 132.182 19.724C131.774 19.988 131.306 20.12 130.778 20.12ZM132.998 20V18.56H132.95V13.88H134.186V20H132.998ZM139.199 20.108C138.623 20.108 138.143 19.972 137.759 19.7C137.375 19.42 137.123 19.032 137.003 18.536L137.123 18.512V20H135.935V11.36H137.183V15.284L137.051 15.248C137.187 14.784 137.451 14.42 137.843 14.156C138.243 13.892 138.723 13.76 139.283 13.76C139.835 13.76 140.311 13.892 140.711 14.156C141.119 14.42 141.431 14.788 141.647 15.26C141.871 15.732 141.983 16.284 141.983 16.916C141.983 17.556 141.867 18.116 141.635 18.596C141.403 19.076 141.079 19.448 140.663 19.712C140.247 19.976 139.759 20.108 139.199 20.108ZM138.935 19.076C139.479 19.076 139.911 18.884 140.231 18.5C140.551 18.116 140.711 17.588 140.711 16.916C140.711 16.252 140.551 15.736 140.231 15.368C139.911 14.992 139.475 14.804 138.923 14.804C138.379 14.804 137.943 14.996 137.615 15.38C137.295 15.756 137.135 16.28 137.135 16.952C137.135 17.608 137.295 18.128 137.615 18.512C137.943 18.888 138.383 19.076 138.935 19.076Z" fill="#222222"/>
<path d="M24.1113 7.00842C24.3207 6.99388 24.6294 7.0006 24.8388 7.01035C25.7883 7.04666 26.7249 7.24821 27.609 7.60643C29.4113 8.33619 30.918 9.67596 31.8805 11.4047C32.2281 12.0333 32.4906 12.6826 32.6802 13.3786C33.1843 15.2099 33.0904 17.1606 32.413 18.9319C31.4862 21.2924 29.775 23.0275 27.488 23.9252C27.2864 24.0044 27.1823 24.0347 26.9746 23.946C26.7787 23.8631 26.629 23.695 26.566 23.4871C26.5168 23.3201 26.5332 22.9159 26.5333 22.7195L26.5329 21.1201C26.5332 20.4512 26.5875 20.244 26.331 19.5957C26.3908 19.5885 26.4606 19.5715 26.5188 19.5557C26.7686 19.488 27.035 19.4403 27.281 19.3619C28.0497 19.1237 28.7547 18.7065 29.3413 18.1428C29.4975 17.9898 29.634 17.7848 29.7717 17.6125C29.8708 17.4886 29.9329 17.3389 30.0073 17.1996C30.4004 16.4652 30.477 15.6185 30.4164 14.7954C30.3911 14.4522 30.3317 14.2255 30.2414 13.8943C30.179 13.6654 30.1084 13.5306 30.012 13.3171C29.8942 13.0562 29.7759 12.8387 29.5958 12.6166C29.5151 12.5145 29.438 12.3865 29.3488 12.2906C29.3993 12.1273 29.5113 11.827 29.5436 11.6682C29.6314 11.2035 29.5989 10.7202 29.4551 10.271C29.3959 10.0861 29.2649 9.8945 29.1995 9.70851C28.8143 9.76946 28.5624 9.76763 28.177 9.90046C27.6246 10.0908 27.1034 10.402 26.703 10.8459C26.6092 10.8097 26.4787 10.7815 26.3802 10.7554C25.5619 10.539 24.7026 10.5291 23.8641 10.5831C23.5514 10.6032 23.2302 10.6696 22.9265 10.7438C22.777 10.7803 22.6248 10.8439 22.4726 10.8731L22.459 10.8757C22.3926 10.7978 22.2834 10.7144 22.2089 10.6414C21.7997 10.2402 21.273 9.97787 20.7313 9.82443C20.5833 9.7825 20.4221 9.76966 20.2682 9.74959C20.1679 9.73815 20.0678 9.72478 19.968 9.70947C19.9028 9.86675 19.8221 10.0097 19.7555 10.1607C19.5685 10.5845 19.5346 11.2099 19.6372 11.6599C19.6725 11.8149 19.7989 12.1149 19.8548 12.2811C19.7108 12.4809 19.5135 12.7089 19.386 12.9139C18.6841 14.0428 18.5282 15.5766 18.9865 16.8295C19.4248 17.9815 20.3923 18.7984 21.5029 19.2145C21.9193 19.3705 22.3981 19.5318 22.833 19.5969C22.6755 20.0222 22.5913 20.2982 22.6378 20.7769C22.6222 20.7818 22.6064 20.7862 22.5905 20.7902C22.4844 20.8177 22.362 20.8518 22.2484 20.8686C21.9577 20.9117 21.6038 20.9007 21.3156 20.8463C21.211 20.8265 21.0836 20.7504 20.9869 20.7242C20.7072 20.6484 20.538 20.5403 20.355 20.3105C20.1609 20.0955 19.9489 19.8922 19.7729 19.6533C19.7034 19.5589 19.5236 19.4388 19.4256 19.3722C19.1932 19.2335 18.8869 19.1307 18.6156 19.1369C18.5565 19.1381 18.4659 19.1648 18.407 19.1804C18.3819 19.2406 18.3745 19.2609 18.3597 19.3247C18.6567 19.621 19.0075 19.9122 19.2304 20.2677C19.3094 20.3917 19.3779 20.5226 19.435 20.6588C19.4745 20.7543 19.5274 20.9019 19.5716 20.9889C19.6194 21.0829 19.7402 21.2431 19.8161 21.3158C19.928 21.4231 20.102 21.6306 20.2245 21.7107C20.3236 21.7754 20.5337 21.8537 20.6533 21.9084C20.7943 21.973 20.9889 22.071 21.1319 22.1155C21.2056 22.1385 21.4451 22.1222 21.5346 22.1216C21.902 22.1193 22.268 22.0947 22.6361 22.0986C22.629 22.3437 22.6366 22.5925 22.6345 22.8378C22.6328 23.0321 22.6437 23.2626 22.5981 23.4502C22.568 23.5752 22.5098 23.6912 22.4282 23.7889C22.1191 24.1556 21.7202 23.9419 21.3572 23.7954C20.4422 23.4261 19.5682 22.8787 18.8366 22.2021C17.4816 20.959 16.5492 19.3024 16.1758 17.4748C15.994 16.5664 15.9519 15.6526 16.0555 14.7318C16.2529 12.9219 16.9959 11.221 18.1803 9.86716C19.7056 8.13624 21.842 7.10652 24.1113 7.00842Z" fill="black"/>
</g>
<defs>
<clipPath id="clip0_1788_2645">
<rect width="156" height="31" fill="white"/>
</clipPath>
</defs>
</svg>
