<svg width="156" height="31" viewBox="0 0 156 31" fill="none" xmlns="http://www.w3.org/2000/svg">
<g clip-path="url(#clip0_1788_2656)">
<path d="M151 1H5C2.51472 1 0.5 3.01472 0.5 5.5V25.5C0.5 27.9853 2.51472 30 5 30H151C153.485 30 155.5 27.9853 155.5 25.5V5.5C155.5 3.01472 153.485 1 151 1Z" fill="#1C1C1C"/>
<path d="M151 1H5C2.51472 1 0.5 3.01472 0.5 5.5V25.5C0.5 27.9853 2.51472 30 5 30H151C153.485 30 155.5 27.9853 155.5 25.5V5.5C155.5 3.01472 153.485 1 151 1Z" stroke="#2E2E2E"/>
<path d="M40.692 20.12C40.092 20.12 39.536 20.012 39.024 19.796C38.512 19.572 38.068 19.264 37.692 18.872C37.324 18.472 37.036 18 36.828 17.456C36.62 16.912 36.516 16.316 36.516 15.668C36.516 15.02 36.616 14.428 36.816 13.892C37.024 13.348 37.312 12.88 37.68 12.488C38.056 12.088 38.5 11.78 39.012 11.564C39.524 11.348 40.08 11.24 40.68 11.24C41.352 11.24 41.956 11.376 42.492 11.648C43.028 11.912 43.464 12.288 43.8 12.776C44.144 13.264 44.356 13.832 44.436 14.48H43.188C43.084 13.8 42.808 13.272 42.36 12.896C41.92 12.512 41.364 12.32 40.692 12.32C40.124 12.32 39.62 12.46 39.18 12.74C38.748 13.012 38.412 13.4 38.172 13.904C37.932 14.4 37.812 14.988 37.812 15.668C37.812 16.34 37.932 16.932 38.172 17.444C38.42 17.948 38.76 18.34 39.192 18.62C39.624 18.9 40.124 19.04 40.692 19.04C41.364 19.04 41.924 18.852 42.372 18.476C42.828 18.092 43.104 17.56 43.2 16.88H44.46C44.372 17.536 44.156 18.108 43.812 18.596C43.468 19.076 43.028 19.452 42.492 19.724C41.964 19.988 41.364 20.12 40.692 20.12ZM48.4345 20.12C47.8105 20.12 47.2625 19.984 46.7905 19.712C46.3185 19.432 45.9505 19.052 45.6865 18.572C45.4225 18.084 45.2905 17.532 45.2905 16.916C45.2905 16.292 45.4225 15.744 45.6865 15.272C45.9585 14.8 46.3265 14.432 46.7905 14.168C47.2625 13.896 47.8105 13.76 48.4345 13.76C49.0665 13.76 49.6185 13.896 50.0905 14.168C50.5625 14.432 50.9265 14.8 51.1825 15.272C51.4465 15.744 51.5785 16.292 51.5785 16.916C51.5785 17.532 51.4465 18.084 51.1825 18.572C50.9265 19.052 50.5625 19.432 50.0905 19.712C49.6185 19.984 49.0665 20.12 48.4345 20.12ZM48.4345 19.1C48.8105 19.1 49.1345 19.008 49.4065 18.824C49.6865 18.64 49.9065 18.384 50.0665 18.056C50.2265 17.728 50.3065 17.344 50.3065 16.904C50.3065 16.248 50.1305 15.732 49.7785 15.356C49.4345 14.972 48.9865 14.78 48.4345 14.78C47.8905 14.78 47.4425 14.972 47.0905 15.356C46.7465 15.74 46.5745 16.256 46.5745 16.904C46.5745 17.344 46.6505 17.728 46.8025 18.056C46.9625 18.384 47.1825 18.64 47.4625 18.824C47.7505 19.008 48.0745 19.1 48.4345 19.1ZM52.8604 20V13.88H54.0484V15.32H54.1084V20H52.8604ZM57.2044 20V16.064C57.2044 15.64 57.0964 15.324 56.8804 15.116C56.6724 14.908 56.3604 14.804 55.9444 14.804C55.5844 14.804 55.2644 14.884 54.9844 15.044C54.7124 15.204 54.4964 15.424 54.3364 15.704C54.1844 15.984 54.1084 16.316 54.1084 16.7L53.9524 15.236C54.1524 14.78 54.4604 14.42 54.8764 14.156C55.2924 13.892 55.7764 13.76 56.3284 13.76C56.9844 13.76 57.5004 13.944 57.8764 14.312C58.2524 14.68 58.4404 15.168 58.4404 15.776V20H57.2044ZM60.1377 20V13.88H61.3257V15.32H61.3857V20H60.1377ZM64.4817 20V16.064C64.4817 15.64 64.3737 15.324 64.1577 15.116C63.9497 14.908 63.6377 14.804 63.2217 14.804C62.8617 14.804 62.5417 14.884 62.2617 15.044C61.9897 15.204 61.7737 15.424 61.6137 15.704C61.4617 15.984 61.3857 16.316 61.3857 16.7L61.2297 15.236C61.4297 14.78 61.7377 14.42 62.1537 14.156C62.5697 13.892 63.0537 13.76 63.6057 13.76C64.2617 13.76 64.7777 13.944 65.1537 14.312C65.5297 14.68 65.7177 15.168 65.7177 15.776V20H64.4817ZM70.0551 20.12C69.4391 20.12 68.8951 19.984 68.4231 19.712C67.9591 19.44 67.5951 19.064 67.3311 18.584C67.0671 18.104 66.9351 17.552 66.9351 16.928C66.9351 16.296 67.0631 15.744 67.3191 15.272C67.5831 14.792 67.9511 14.42 68.4231 14.156C68.8951 13.892 69.4351 13.76 70.0431 13.76C70.6351 13.76 71.1471 13.888 71.5791 14.144C72.0191 14.392 72.3551 14.74 72.5871 15.188C72.8271 15.636 72.9471 16.168 72.9471 16.784C72.9471 16.88 72.9431 16.972 72.9351 17.06C72.9351 17.14 72.9271 17.224 72.9111 17.312H67.7751V16.376H72.0351L71.7231 16.748C71.7231 16.092 71.5751 15.592 71.2791 15.248C70.9831 14.904 70.5711 14.732 70.0431 14.732C69.4751 14.732 69.0231 14.928 68.6871 15.32C68.3591 15.704 68.1951 16.24 68.1951 16.928C68.1951 17.624 68.3591 18.168 68.6871 18.56C69.0231 18.952 69.4871 19.148 70.0791 19.148C70.4391 19.148 70.7511 19.076 71.0151 18.932C71.2791 18.78 71.4751 18.56 71.6031 18.272H72.7791C72.5791 18.848 72.2391 19.3 71.7591 19.628C71.2871 19.956 70.7191 20.12 70.0551 20.12ZM76.8028 20.12C76.2188 20.12 75.6988 19.984 75.2428 19.712C74.7868 19.432 74.4268 19.052 74.1628 18.572C73.9068 18.092 73.7788 17.544 73.7788 16.928C73.7788 16.312 73.9068 15.768 74.1628 15.296C74.4268 14.816 74.7868 14.44 75.2428 14.168C75.6988 13.896 76.2148 13.76 76.7908 13.76C77.2788 13.76 77.7148 13.852 78.0988 14.036C78.4828 14.22 78.7988 14.476 79.0468 14.804C79.2948 15.132 79.4548 15.52 79.5268 15.968H78.3508C78.2708 15.608 78.0948 15.32 77.8228 15.104C77.5588 14.888 77.2228 14.78 76.8148 14.78C76.4628 14.78 76.1548 14.868 75.8908 15.044C75.6268 15.22 75.4228 15.468 75.2788 15.788C75.1348 16.108 75.0628 16.488 75.0628 16.928C75.0628 17.36 75.1348 17.74 75.2788 18.068C75.4228 18.396 75.6268 18.652 75.8908 18.836C76.1548 19.012 76.4668 19.1 76.8268 19.1C77.2188 19.1 77.5508 18.996 77.8228 18.788C78.1028 18.572 78.2828 18.284 78.3628 17.924H79.5388C79.4588 18.364 79.2908 18.748 79.0348 19.076C78.7868 19.404 78.4708 19.66 78.0868 19.844C77.7028 20.028 77.2748 20.12 76.8028 20.12ZM83.3316 20.12C82.6196 20.12 82.0956 19.956 81.7596 19.628C81.4316 19.292 81.2676 18.8 81.2676 18.152V12.476L82.5036 12.008V18.164C82.5036 18.484 82.5876 18.72 82.7556 18.872C82.9236 19.024 83.1956 19.1 83.5716 19.1C83.7156 19.1 83.8436 19.088 83.9556 19.064C84.0676 19.04 84.1636 19.012 84.2436 18.98V19.988C84.1556 20.028 84.0316 20.06 83.8716 20.084C83.7116 20.108 83.5316 20.12 83.3316 20.12ZM80.0436 14.876V13.88H84.2436V14.876H80.0436ZM90.398 20.12C89.686 20.12 89.162 19.956 88.826 19.628C88.498 19.292 88.334 18.8 88.334 18.152V12.476L89.57 12.008V18.164C89.57 18.484 89.654 18.72 89.822 18.872C89.99 19.024 90.262 19.1 90.638 19.1C90.782 19.1 90.91 19.088 91.022 19.064C91.134 19.04 91.23 19.012 91.31 18.98V19.988C91.222 20.028 91.098 20.06 90.938 20.084C90.778 20.108 90.598 20.12 90.398 20.12ZM87.11 14.876V13.88H91.31V14.876H87.11ZM94.9931 20.12C94.3691 20.12 93.8211 19.984 93.3491 19.712C92.8771 19.432 92.5091 19.052 92.2451 18.572C91.9811 18.084 91.8491 17.532 91.8491 16.916C91.8491 16.292 91.9811 15.744 92.2451 15.272C92.5171 14.8 92.8851 14.432 93.3491 14.168C93.8211 13.896 94.3691 13.76 94.9931 13.76C95.6251 13.76 96.1771 13.896 96.6491 14.168C97.1211 14.432 97.4851 14.8 97.7411 15.272C98.0051 15.744 98.1371 16.292 98.1371 16.916C98.1371 17.532 98.0051 18.084 97.7411 18.572C97.4851 19.052 97.1211 19.432 96.6491 19.712C96.1771 19.984 95.6251 20.12 94.9931 20.12ZM94.9931 19.1C95.3691 19.1 95.6931 19.008 95.9651 18.824C96.2451 18.64 96.4651 18.384 96.6251 18.056C96.7851 17.728 96.8651 17.344 96.8651 16.904C96.8651 16.248 96.6891 15.732 96.3371 15.356C95.9931 14.972 95.5451 14.78 94.9931 14.78C94.4491 14.78 94.0011 14.972 93.6491 15.356C93.3051 15.74 93.1331 16.256 93.1331 16.904C93.1331 17.344 93.2091 17.728 93.3611 18.056C93.5211 18.384 93.7411 18.64 94.0211 18.824C94.3091 19.008 94.6331 19.1 94.9931 19.1ZM105.818 20.12C104.914 20.12 104.134 19.94 103.478 19.58C102.822 19.212 102.314 18.7 101.954 18.044C101.602 17.388 101.426 16.616 101.426 15.728C101.426 14.848 101.602 14.072 101.954 13.4C102.314 12.72 102.81 12.192 103.442 11.816C104.074 11.432 104.802 11.24 105.626 11.24C106.282 11.24 106.874 11.364 107.402 11.612C107.938 11.852 108.374 12.188 108.71 12.62C109.054 13.052 109.258 13.552 109.322 14.12H108.05C107.97 13.568 107.714 13.132 107.282 12.812C106.85 12.484 106.31 12.32 105.662 12.32C105.07 12.32 104.554 12.46 104.114 12.74C103.674 13.02 103.33 13.412 103.082 13.916C102.842 14.42 102.722 15.016 102.722 15.704C102.722 16.4 102.846 17 103.094 17.504C103.342 18 103.702 18.384 104.174 18.656C104.654 18.92 105.23 19.052 105.902 19.052C106.382 19.052 106.806 18.984 107.174 18.848C107.542 18.712 107.862 18.512 108.134 18.248L109.37 18.716C108.922 19.18 108.406 19.532 107.822 19.772C107.238 20.004 106.57 20.12 105.818 20.12ZM108.098 18.716V16.064L108.47 16.436H105.89V15.38H109.37V18.716H108.098ZM110.927 20V13.88H112.175V20H110.927ZM110.867 12.68V11.276H112.247V12.68H110.867ZM116.484 20.12C115.772 20.12 115.248 19.956 114.912 19.628C114.584 19.292 114.42 18.8 114.42 18.152V12.476L115.656 12.008V18.164C115.656 18.484 115.74 18.72 115.908 18.872C116.076 19.024 116.348 19.1 116.724 19.1C116.868 19.1 116.996 19.088 117.108 19.064C117.22 19.04 117.316 19.012 117.396 18.98V19.988C117.308 20.028 117.184 20.06 117.024 20.084C116.864 20.108 116.684 20.12 116.484 20.12ZM113.196 14.876V13.88H117.396V14.876H113.196ZM118.579 20V11.36H119.827V20H118.579ZM122.923 20V16.064C122.923 15.64 122.815 15.324 122.599 15.116C122.391 14.908 122.079 14.804 121.663 14.804C121.303 14.804 120.983 14.884 120.703 15.044C120.431 15.204 120.215 15.424 120.055 15.704C119.903 15.984 119.827 16.316 119.827 16.7L119.671 15.236C119.871 14.78 120.179 14.42 120.595 14.156C121.011 13.892 121.495 13.76 122.047 13.76C122.703 13.76 123.219 13.944 123.595 14.312C123.971 14.68 124.159 15.168 124.159 15.776V20H122.923ZM127.778 20.12C127.37 20.12 127.01 20.036 126.698 19.868C126.386 19.692 126.142 19.452 125.966 19.148C125.798 18.844 125.714 18.496 125.714 18.104V13.88H126.962V17.816C126.962 18.24 127.066 18.556 127.274 18.764C127.482 18.972 127.778 19.076 128.162 19.076C128.506 19.076 128.81 18.996 129.074 18.836C129.346 18.676 129.558 18.456 129.71 18.176C129.87 17.888 129.95 17.556 129.95 17.18L130.106 18.644C129.906 19.092 129.598 19.452 129.182 19.724C128.774 19.988 128.306 20.12 127.778 20.12ZM129.998 20V18.56H129.95V13.88H131.186V20H129.998ZM136.199 20.108C135.623 20.108 135.143 19.972 134.759 19.7C134.375 19.42 134.123 19.032 134.003 18.536L134.123 18.512V20H132.935V11.36H134.183V15.284L134.051 15.248C134.187 14.784 134.451 14.42 134.843 14.156C135.243 13.892 135.723 13.76 136.283 13.76C136.835 13.76 137.311 13.892 137.711 14.156C138.119 14.42 138.431 14.788 138.647 15.26C138.871 15.732 138.983 16.284 138.983 16.916C138.983 17.556 138.867 18.116 138.635 18.596C138.403 19.076 138.079 19.448 137.663 19.712C137.247 19.976 136.759 20.108 136.199 20.108ZM135.935 19.076C136.479 19.076 136.911 18.884 137.231 18.5C137.551 18.116 137.711 17.588 137.711 16.916C137.711 16.252 137.551 15.736 137.231 15.368C136.911 14.992 136.475 14.804 135.923 14.804C135.379 14.804 134.943 14.996 134.615 15.38C134.295 15.756 134.135 16.28 134.135 16.952C134.135 17.608 134.295 18.128 134.615 18.512C134.943 18.888 135.383 19.076 135.935 19.076Z" fill="white"/>
<path d="M20.1113 7.00842C20.3207 6.99388 20.6294 7.0006 20.8388 7.01035C21.7883 7.04666 22.7249 7.24821 23.609 7.60643C25.4113 8.33619 26.918 9.67596 27.8805 11.4047C28.2281 12.0333 28.4906 12.6826 28.6802 13.3786C29.1843 15.2099 29.0904 17.1606 28.413 18.9319C27.4862 21.2924 25.775 23.0275 23.488 23.9252C23.2864 24.0044 23.1823 24.0347 22.9746 23.946C22.7787 23.8631 22.629 23.695 22.566 23.4871C22.5168 23.3201 22.5332 22.9159 22.5333 22.7195L22.5329 21.1201C22.5332 20.4512 22.5875 20.244 22.331 19.5957C22.3908 19.5885 22.4606 19.5715 22.5188 19.5557C22.7686 19.488 23.035 19.4403 23.281 19.3619C24.0497 19.1237 24.7547 18.7065 25.3413 18.1428C25.4975 17.9898 25.634 17.7848 25.7717 17.6125C25.8708 17.4886 25.9329 17.3389 26.0073 17.1996C26.4004 16.4652 26.477 15.6185 26.4164 14.7954C26.3911 14.4522 26.3317 14.2255 26.2414 13.8943C26.179 13.6654 26.1084 13.5306 26.012 13.3171C25.8942 13.0562 25.7759 12.8387 25.5958 12.6166C25.5151 12.5145 25.438 12.3865 25.3488 12.2906C25.3993 12.1273 25.5113 11.827 25.5436 11.6682C25.6314 11.2035 25.5989 10.7202 25.4551 10.271C25.3959 10.0861 25.2649 9.8945 25.1995 9.70851C24.8143 9.76946 24.5624 9.76763 24.177 9.90046C23.6246 10.0908 23.1034 10.402 22.703 10.8459C22.6092 10.8097 22.4787 10.7815 22.3802 10.7554C21.5619 10.539 20.7026 10.5291 19.8641 10.5831C19.5514 10.6032 19.2302 10.6696 18.9265 10.7438C18.777 10.7803 18.6248 10.8439 18.4726 10.8731L18.459 10.8757C18.3926 10.7978 18.2834 10.7144 18.2089 10.6414C17.7997 10.2402 17.273 9.97787 16.7313 9.82443C16.5833 9.7825 16.4221 9.76966 16.2682 9.74959C16.1679 9.73815 16.0678 9.72478 15.968 9.70947C15.9028 9.86675 15.8221 10.0097 15.7555 10.1607C15.5685 10.5845 15.5346 11.2099 15.6372 11.6599C15.6725 11.8149 15.7989 12.1149 15.8548 12.2811C15.7108 12.4809 15.5135 12.7089 15.386 12.9139C14.6841 14.0428 14.5282 15.5766 14.9865 16.8295C15.4248 17.9815 16.3923 18.7984 17.5029 19.2145C17.9193 19.3705 18.3981 19.5318 18.833 19.5969C18.6755 20.0222 18.5913 20.2982 18.6378 20.7769C18.6222 20.7818 18.6064 20.7862 18.5905 20.7902C18.4844 20.8177 18.362 20.8518 18.2484 20.8686C17.9577 20.9117 17.6038 20.9007 17.3156 20.8463C17.211 20.8265 17.0836 20.7504 16.9869 20.7242C16.7072 20.6484 16.538 20.5403 16.355 20.3105C16.1609 20.0955 15.9489 19.8922 15.7729 19.6533C15.7034 19.5589 15.5236 19.4388 15.4256 19.3722C15.1932 19.2335 14.8869 19.1307 14.6156 19.1369C14.5565 19.1381 14.4659 19.1648 14.407 19.1804C14.3819 19.2406 14.3745 19.2609 14.3597 19.3247C14.6567 19.621 15.0075 19.9122 15.2304 20.2677C15.3094 20.3917 15.3779 20.5226 15.435 20.6588C15.4745 20.7543 15.5274 20.9019 15.5716 20.9889C15.6194 21.0829 15.7402 21.2431 15.8161 21.3158C15.928 21.4231 16.102 21.6306 16.2245 21.7107C16.3236 21.7754 16.5337 21.8537 16.6533 21.9084C16.7943 21.973 16.9889 22.071 17.1319 22.1155C17.2056 22.1385 17.4451 22.1222 17.5346 22.1216C17.902 22.1193 18.268 22.0947 18.6361 22.0986C18.629 22.3437 18.6366 22.5925 18.6345 22.8378C18.6328 23.0321 18.6437 23.2626 18.5981 23.4502C18.568 23.5752 18.5098 23.6912 18.4282 23.7889C18.1191 24.1556 17.7202 23.9419 17.3572 23.7954C16.4422 23.4261 15.5682 22.8787 14.8366 22.2021C13.4816 20.959 12.5492 19.3024 12.1758 17.4748C11.994 16.5664 11.9519 15.6526 12.0555 14.7318C12.2529 12.9219 12.9959 11.221 14.1803 9.86716C15.7056 8.13624 17.842 7.10652 20.1113 7.00842Z" fill="white"/>
</g>
<defs>
<clipPath id="clip0_1788_2656">
<rect width="156" height="31" fill="white"/>
</clipPath>
</defs>
</svg>
