<svg width="949" height="512" viewBox="0 0 949 512" fill="none" xmlns="http://www.w3.org/2000/svg">
<rect x="0.5" y="0.5" width="947.14" height="511" rx="23.5" fill="#ECEDF1" fill-opacity="0.53"/>
<rect x="0.5" y="0.5" width="947.14" height="511" rx="23.5" stroke="#E0E1E6"/>
<rect x="175.5" y="37.5" width="597" height="437" rx="21.5" fill="white" fill-opacity="0.39" stroke="#D6DCE8" stroke-width="3"/>
<rect opacity="0.3" x="462" y="100" width="200" height="57" rx="16.0211" fill="#AAB2C5"/>
<path d="M403.279 96.7987V289.441C403.279 298.105 396.149 305.24 387.491 305.24H273.787C265.13 305.24 258 298.105 258 289.441V96.7987C258 88.1349 265.13 81 273.787 81H387.491C396.149 81 403.279 88.1349 403.279 96.7987Z" fill="white" stroke="#D6DCE8" stroke-width="2.46103" stroke-miterlimit="10"/>
<path d="M403.279 96.7987V108.266H258V96.7987C258 88.1349 265.13 81 273.787 81H387.491C396.149 81 403.279 88.1349 403.279 96.7987Z" fill="#F1F3F9" stroke="#D6DCE8" stroke-width="2.46103" stroke-miterlimit="10"/>
<path d="M274.296 99.602C276.968 99.602 279.134 97.4344 279.134 94.7605C279.134 92.0866 276.968 89.9189 274.296 89.9189C271.624 89.9189 269.458 92.0866 269.458 94.7605C269.458 97.4344 271.624 99.602 274.296 99.602Z" fill="#AAB2C5"/>
<path opacity="0.6" d="M289.575 99.602C292.247 99.602 294.413 97.4344 294.413 94.7605C294.413 92.0866 292.247 89.9189 289.575 89.9189C286.903 89.9189 284.737 92.0866 284.737 94.7605C284.737 97.4344 286.903 99.602 289.575 99.602Z" fill="#AAB2C5"/>
<path opacity="0.4" d="M304.598 99.602C307.27 99.602 309.436 97.4344 309.436 94.7605C309.436 92.0866 307.27 89.9189 304.598 89.9189C301.926 89.9189 299.76 92.0866 299.76 94.7605C299.76 97.4344 301.926 99.602 304.598 99.602Z" fill="#AAB2C5"/>
<path d="M285.759 260.132H377.338" stroke="#D6DCE8" stroke-width="2.46103" stroke-miterlimit="10"/>
<path d="M285.759 240.129H377.338" stroke="#D6DCE8" stroke-width="2.46103" stroke-miterlimit="10"/>
<path d="M305.473 219H357.624" stroke="#AAB2C5" stroke-width="2.46103" stroke-miterlimit="10"/>
<path d="M312.045 278.854H348.875" stroke="#D6DCE8" stroke-width="2.46103" stroke-miterlimit="10"/>
<circle cx="333.402" cy="161.5" r="34.4999" fill="#F1F3F9"/>
<rect x="464.314" y="184.891" width="204.439" height="261.86" rx="9.85712" fill="white" stroke="#AAB2C5" stroke-width="2.46103" stroke-miterlimit="10"/>
<rect x="494.128" y="386.932" width="144.811" height="29.9103" rx="6.57142" fill="#D6DCE8"/>
<path d="M494.128 344.202H636.81" stroke="#AAB2C5" stroke-width="2.46103" stroke-miterlimit="10"/>
<path d="M494.128 322.415H636.81" stroke="#AAB2C5" stroke-width="2.46103" stroke-miterlimit="10"/>
<path d="M494.128 364.59H577.182" stroke="#AAB2C5" stroke-width="2.46103" stroke-miterlimit="10"/>
<path d="M468.574 202.306C468.574 195.048 474.458 189.164 481.717 189.164H651.352C658.611 189.164 664.495 195.048 664.495 202.306V293.665H468.574V202.306Z" fill="#F1F3F9"/>
<rect x="653.974" y="167" width="32.2064" height="32.2064" rx="6.57142" fill="#D6DCE8" stroke="#AAB2C5" stroke-width="2.46103" stroke-miterlimit="10"/>
<rect x="653.974" y="431.809" width="32.2064" height="32.2064" rx="6.57142" fill="#D6DCE8" stroke="#AAB2C5" stroke-width="2.46103" stroke-miterlimit="10"/>
<rect x="450" y="167" width="32.2064" height="32.2064" rx="6.57142" fill="#D6DCE8" stroke="#AAB2C5" stroke-width="2.46103" stroke-miterlimit="10"/>
<rect x="450" y="431.809" width="32.2064" height="32.2064" rx="6.57142" fill="#D6DCE8" stroke="#AAB2C5" stroke-width="2.46103" stroke-miterlimit="10"/>
<path d="M767.896 252.711C767.051 253.964 766.628 254.8 764.938 255.635L745.5 263.571C742.542 264.824 739.584 266.495 737.471 268.583C735.358 270.672 733.668 272.76 733.246 275.684L725.217 294.898C724.372 297.822 720.991 299.075 718.878 297.822C718.033 296.986 716.765 296.568 716.765 295.733L686.634 221.349C685.789 220.095 685.789 218.425 686.634 217.589C687.479 216.336 689.592 215.501 691.705 216.336L767.051 246.028C767.896 247.699 768.741 250.623 767.896 252.711Z" fill="#D6DCE8" stroke="#AAB2C5" stroke-width="2.46103" stroke-miterlimit="10" stroke-linejoin="round"/>
<rect opacity="0.3" x="274" y="366" width="133" height="72" rx="36" fill="#AAB2C5"/>
<rect x="266.046" y="350.428" width="128.143" height="79.1469" rx="39.5735" fill="white" stroke="#D6DCE8" stroke-width="2.46103" stroke-miterlimit="10"/>
<circle cx="309.388" cy="390.002" r="24.4978" fill="#D6DCE8" stroke="#AAB2C5" stroke-width="2.46103" stroke-miterlimit="10" stroke-linejoin="round"/>
<rect x="453.331" y="89.625" width="200.428" height="60.3749" rx="16.4285" fill="white" stroke="#D6DCE8" stroke-width="2.46103" stroke-miterlimit="10"/>
<path d="M500.619 91.0918L500.619 147.573" stroke="#D6DCE8" stroke-width="2.46103" stroke-miterlimit="10"/>
<path d="M609.046 91.0918L609.046 147.573" stroke="#D6DCE8" stroke-width="2.46103" stroke-miterlimit="10"/>
<circle cx="529.519" cy="119.812" r="7.18749" fill="#D6DCE8"/>
<circle cx="554.983" cy="119.812" r="7.18749" fill="#D6DCE8"/>
<circle cx="580.447" cy="119.812" r="7.18749" fill="#D6DCE8"/>
<path d="M480.644 109.75L470.581 119.812L480.644 129.875" stroke="#D6DCE8" stroke-width="2.46103" stroke-miterlimit="10" stroke-linecap="round" stroke-linejoin="round"/>
<path d="M627.885 109.75L637.947 119.812L627.885 129.875" stroke="#D6DCE8" stroke-width="2.46103" stroke-miterlimit="10" stroke-linecap="round" stroke-linejoin="round"/>
<path d="M197.05 63C200.364 63 203.05 60.3137 203.05 57C203.05 53.6863 200.364 51 197.05 51C193.736 51 191.05 53.6863 191.05 57C191.05 60.3137 193.736 63 197.05 63Z" fill="#ED6A5E"/>
<path d="M217.05 63C220.364 63 223.05 60.3137 223.05 57C223.05 53.6863 220.364 51 217.05 51C213.736 51 211.05 53.6863 211.05 57C211.05 60.3137 213.736 63 217.05 63Z" fill="#F4BD4F"/>
<path d="M237.05 63C240.364 63 243.05 60.3137 243.05 57C243.05 53.6863 240.364 51 237.05 51C233.736 51 231.05 53.6863 231.05 57C231.05 60.3137 233.736 63 237.05 63Z" fill="#61C454"/>
<path d="M568.484 223.559C568.522 223.559 568.544 223.57 568.55 223.574C568.552 223.575 568.553 223.577 568.555 223.58C568.557 223.582 568.567 223.594 568.579 223.625L574.208 238.836C574.609 239.921 575.464 240.777 576.549 241.178L591.759 246.806C591.791 246.818 591.804 246.828 591.806 246.83C591.809 246.832 591.81 246.833 591.811 246.834C591.815 246.84 591.826 246.864 591.826 246.902C591.826 246.94 591.815 246.962 591.811 246.968C591.81 246.97 591.809 246.971 591.806 246.973C591.804 246.975 591.791 246.985 591.759 246.997L576.549 252.625C575.464 253.027 574.609 253.882 574.208 254.967L568.579 270.177C568.567 270.209 568.557 270.222 568.555 270.224C568.553 270.227 568.552 270.228 568.55 270.229C568.544 270.233 568.522 270.244 568.484 270.244C568.446 270.244 568.422 270.233 568.417 270.229C568.415 270.228 568.414 270.227 568.412 270.224C568.41 270.222 568.4 270.209 568.388 270.177L562.76 254.967C562.359 253.882 561.503 253.027 560.418 252.625L545.208 246.997C545.176 246.985 545.164 246.975 545.162 246.973C545.159 246.971 545.157 246.97 545.156 246.968C545.152 246.962 545.141 246.939 545.141 246.902C545.141 246.864 545.152 246.84 545.156 246.834C545.157 246.833 545.159 246.832 545.162 246.83C545.164 246.827 545.177 246.817 545.208 246.806L560.418 241.178C561.503 240.777 562.359 239.921 562.76 238.836L568.388 223.625C568.399 223.595 568.409 223.582 568.412 223.58C568.414 223.577 568.415 223.575 568.417 223.574C568.422 223.57 568.446 223.559 568.484 223.559Z" stroke="#9EA8C1" stroke-width="3.86229"/>
<path d="M334 148.756C334.037 148.756 334.06 148.766 334.066 148.771C334.068 148.772 334.07 148.774 334.072 148.776C334.075 148.779 334.085 148.792 334.096 148.822L337.536 158.122C337.938 159.207 338.793 160.062 339.878 160.464L349.178 163.904C349.208 163.915 349.221 163.925 349.224 163.928C349.226 163.93 349.228 163.932 349.229 163.934C349.234 163.94 349.244 163.963 349.244 164C349.244 164.037 349.234 164.06 349.229 164.066C349.228 164.068 349.226 164.07 349.224 164.072C349.221 164.075 349.208 164.085 349.178 164.096L339.878 167.536C338.793 167.938 337.938 168.793 337.536 169.878L334.096 179.178C334.085 179.208 334.075 179.221 334.072 179.224C334.07 179.226 334.068 179.228 334.066 179.229C334.06 179.234 334.037 179.244 334 179.244C333.963 179.244 333.94 179.234 333.934 179.229C333.932 179.228 333.93 179.226 333.928 179.224C333.925 179.221 333.915 179.208 333.904 179.178L330.464 169.878C330.062 168.793 329.207 167.938 328.122 167.536L318.822 164.096C318.792 164.085 318.779 164.075 318.776 164.072C318.774 164.07 318.772 164.068 318.771 164.066C318.766 164.06 318.756 164.037 318.756 164C318.756 163.963 318.766 163.94 318.771 163.934C318.772 163.932 318.774 163.93 318.776 163.928C318.779 163.925 318.792 163.915 318.822 163.904L328.122 160.464C329.207 160.062 330.062 159.207 330.464 158.122L333.904 148.822C333.915 148.792 333.925 148.779 333.928 148.776C333.93 148.774 333.932 148.772 333.934 148.771C333.94 148.766 333.963 148.756 334 148.756Z" stroke="#9EA8C1" stroke-width="3.86229"/>
<path d="M544.623 210.756C544.661 210.756 544.683 210.767 544.689 210.771C544.691 210.772 544.693 210.774 544.695 210.776C544.698 210.78 544.708 210.792 544.719 210.822L547.518 218.387C547.919 219.472 548.774 220.327 549.859 220.729L557.424 223.527C557.454 223.539 557.467 223.549 557.47 223.551C557.472 223.553 557.473 223.555 557.475 223.557C557.478 223.563 557.49 223.585 557.49 223.623C557.49 223.661 557.478 223.684 557.475 223.689C557.473 223.691 557.472 223.693 557.47 223.695C557.467 223.698 557.454 223.708 557.424 223.719L549.859 226.518C548.774 226.919 547.919 227.774 547.518 228.859L544.719 236.424C544.708 236.454 544.698 236.467 544.695 236.47C544.693 236.472 544.691 236.473 544.689 236.475C544.684 236.478 544.661 236.49 544.623 236.49C544.585 236.49 544.563 236.478 544.557 236.475C544.555 236.473 544.553 236.472 544.551 236.47C544.549 236.467 544.539 236.454 544.527 236.424L541.729 228.859C541.327 227.774 540.472 226.919 539.387 226.518L531.822 223.719C531.792 223.708 531.78 223.698 531.776 223.695C531.774 223.693 531.772 223.691 531.771 223.689C531.767 223.683 531.756 223.661 531.756 223.623C531.756 223.586 531.766 223.563 531.771 223.557C531.772 223.555 531.774 223.553 531.776 223.551C531.779 223.548 531.792 223.538 531.822 223.527L539.387 220.729C540.472 220.327 541.327 219.472 541.729 218.387L544.527 210.822C544.538 210.792 544.548 210.779 544.551 210.776C544.553 210.774 544.555 210.772 544.557 210.771C544.563 210.766 544.586 210.756 544.623 210.756Z" stroke="#9EA8C1" stroke-width="3.86229"/>
</svg>
