<svg width="949" height="512" viewBox="0 0 949 512" fill="none" xmlns="http://www.w3.org/2000/svg">
<rect x="0.5" y="0.5" width="947.14" height="511" rx="23.5" fill="#ECEDF1" fill-opacity="0.53"/>
<rect x="0.5" y="0.5" width="947.14" height="511" rx="23.5" stroke="#E0E1E6"/>
<path d="M165.752 463C163.16 463 161 461.532 161 459.771V294.229C161 292.468 163.16 291 165.752 291H337.248C339.84 291 342 292.468 342 294.229V459.771C342 461.532 339.84 463 337.248 463H165.752Z" fill="white" stroke="#D6DCE8" stroke-width="3" stroke-miterlimit="10"/>
<path d="M165.752 261C163.16 261 161 259.532 161 257.771V92.2287C161 90.4676 163.16 89 165.752 89H337.248C339.84 89 342 90.4676 342 92.2287V257.771C342 259.532 339.84 261 337.248 261H165.752Z" fill="white" stroke="#D6DCE8" stroke-width="3" stroke-miterlimit="10"/>
<path d="M377.752 463C375.16 463 373 461.532 373 459.771V294.229C373 292.468 375.16 291 377.752 291H549.248C551.84 291 554 292.468 554 294.229V459.771C554 461.532 551.84 463 549.248 463H377.752Z" fill="white" stroke="#D6DCE8" stroke-width="3" stroke-miterlimit="10"/>
<path d="M377.752 261C375.16 261 373 259.532 373 257.771V92.2287C373 90.4676 375.16 89 377.752 89H549.248C551.84 89 554 90.4676 554 92.2287V257.771C554 259.532 551.84 261 549.248 261H377.752Z" fill="white" stroke="#D6DCE8" stroke-width="3" stroke-miterlimit="10"/>
<path d="M589.752 261C587.16 261 585 259.532 585 257.771V92.2287C585 90.4676 587.16 89 589.752 89H761.248C763.84 89 766 90.4676 766 92.2287V257.771C766 259.532 763.84 261 761.248 261H589.752Z" fill="white" stroke="#ADB5C5" stroke-width="3" stroke-miterlimit="10"/>
<path d="M315.16 427H188.84C186.92 427 185 425.859 185 424.148V348.852C185 347.426 186.536 346 188.84 346H315.16C317.08 346 319 347.141 319 348.852V424.148C318.616 425.859 317.08 427 315.16 427Z" fill="#F1F3F9"/>
<path d="M297.162 319H200.838C200.419 319 200 318.704 200 318.407V311.593C200 311.296 200.419 311 200.838 311H297.162C297.581 311 298 311.296 298 311.593V318.407C298 318.704 297.581 319 297.162 319Z" fill="#D6DCE8"/>
<path d="M317.74 334H181.26C180.42 334 180 333.667 180 333V330C180 329.333 180.42 329 181.26 329H317.74C318.58 329 319 329.333 319 330V333C319 333.667 318.58 334 317.74 334Z" fill="#D6DCE8"/>
<path d="M289.632 446H208.368C206.684 446 205 445.062 205 443.5C205 442.25 206.263 441 208.368 441H289.632C291.316 441 293 441.937 293 443.5C293 444.75 291.316 446 289.632 446Z" fill="#AAB2C5"/>
<path d="M315.16 184H188.84C186.92 184 185 182.873 185 181.183V106.817C185 105.408 186.536 104 188.84 104H315.16C317.08 104 319 105.127 319 106.817V181.183C318.616 182.873 317.08 184 315.16 184Z" fill="#F1F3F9"/>
<path d="M297.162 217H200.838C200.419 217 200 216.704 200 216.407V209.593C200 209.296 200.419 209 200.838 209H297.162C297.581 209 298 209.296 298 209.593V216.407C298 216.704 297.581 217 297.162 217Z" fill="#D6DCE8"/>
<path d="M317.74 231H181.26C180.42 231 180 230.733 180 230.2V227.8C180 227.267 180.42 227 181.26 227H317.74C318.58 227 319 227.267 319 227.8V230.2C319 230.733 318.58 231 317.74 231Z" fill="#D6DCE8"/>
<path d="M289.632 244H208.368C206.684 244 205 243.062 205 241.5C205 240.25 206.263 239 208.368 239H289.632C291.316 239 293 239.937 293 241.5C293 242.75 291.316 244 289.632 244Z" fill="#D6DCE8"/>
<path d="M529.51 377H480.49C479.745 377 479 376 479 374.5V308.5C479 307.25 479.596 306 480.49 306H529.51C530.255 306 531 307 531 308.5V374.5C530.851 376 530.255 377 529.51 377Z" fill="#F1F3F9"/>
<path d="M447.51 451H398.49C397.745 451 397 450 397 448.5V382.5C397 381.25 397.596 380 398.49 380H447.51C448.255 380 449 381 449 382.5V448.5C448.851 450 448.255 451 447.51 451Z" fill="#F1F3F9"/>
<path d="M454.504 334H397.496C397.248 334 397 333.704 397 333.407V326.593C397 326.296 397.248 326 397.496 326H454.504C454.752 326 455 326.296 455 326.593V333.407C455 333.704 454.752 334 454.504 334Z" fill="#D6DCE8"/>
<path d="M530.504 413H473.496C473.248 413 473 412.704 473 412.407V405.593C473 405.296 473.248 405 473.496 405H530.504C530.752 405 531 405.296 531 405.593V412.407C531 412.704 530.752 413 530.504 413Z" fill="#D6DCE8"/>
<path d="M462.402 347H397.598C397.199 347 397 346.667 397 346V343C397 342.333 397.199 342 397.598 342H462.402C462.801 342 463 342.333 463 343V346C463 346.667 462.801 347 462.402 347Z" fill="#D6DCE8"/>
<path d="M447.01 361H398.99C397.995 361 397 360.062 397 358.5C397 357.25 397.746 356 398.99 356H447.01C448.005 356 449 356.937 449 358.5C449 359.75 448.005 361 447.01 361Z" fill="#D6DCE8"/>
<path d="M523.01 427H474.99C473.995 427 473 426.062 473 424.5C473 423.25 473.746 422 474.99 422H523.01C524.005 422 525 422.937 525 424.5C525 425.75 524.005 427 523.01 427Z" fill="#D6DCE8"/>
<path d="M527.16 212H400.84C398.92 212 397 210.873 397 209.183V134.817C397 133.408 398.536 132 400.84 132H527.16C529.08 132 531 133.127 531 134.817V209.183C530.616 210.873 529.08 212 527.16 212Z" fill="#F1F3F9"/>
<path d="M744.788 185H606.212C604.106 185 602 184.155 602 182.887V127.113C602 126.056 603.685 125 606.212 125H744.788C746.894 125 749 125.845 749 127.113V182.887C748.579 184.155 746.894 185 744.788 185Z" fill="#F1F3F9"/>
<path d="M510.154 116H412.846C412.423 116 412 115.704 412 115.407V108.593C412 108.296 412.423 108 412.846 108H510.154C510.577 108 511 108.296 511 108.593V115.407C511 115.704 510.577 116 510.154 116Z" fill="#D6DCE8"/>
<path d="M529.74 231H393.26C392.42 231 392 230.733 392 230.2V227.8C392 227.267 392.42 227 393.26 227H529.74C530.58 227 531 227.267 531 227.8V230.2C531 230.733 530.58 231 529.74 231Z" fill="#D6DCE8"/>
<path d="M501.632 244H420.368C418.684 244 417 243.062 417 241.5C417 240.25 418.263 239 420.368 239H501.632C503.316 239 505 239.937 505 241.5C505 242.75 503.316 244 501.632 244Z" fill="#D6DCE8"/>
<path d="M721.162 112H624.838C624.419 112 624 111.704 624 111.407V104.593C624 104.296 624.419 104 624.838 104H721.162C721.581 104 722 104.296 722 104.593V111.407C722 111.704 721.581 112 721.162 112Z" fill="#D6DCE8"/>
<path d="M740.749 231H605.251C604.417 231 604 230.733 604 230.2V227.8C604 227.267 604.417 227 605.251 227H740.749C741.583 227 742 227.267 742 227.8V230.2C742 230.733 741.583 231 740.749 231Z" fill="#D6DCE8"/>
<path d="M713.632 244H632.368C630.684 244 629 243.062 629 241.5C629 240.25 630.263 239 632.368 239H713.632C715.316 239 717 239.937 717 241.5C717 242.75 715.316 244 713.632 244Z" fill="#D6DCE8"/>
<path d="M619.961 297V298.5H635.258V297H650.555V298.5H665.852V297H681.148V298.5H696.445V297H711.742V298.5H727.039V297H742.336V298.5H749.984C751.207 298.5 752.4 298.885 753.504 299.613L754.328 298.361C756.648 299.891 758.485 302.592 759.388 305.861H759.389L757.942 306.261C758.301 307.561 758.5 308.965 758.5 310.427V317.384H760V331.299H758.5V345.213H760V359.128H758.5V373.043H760V386.957H758.5V400.872H760V414.787H758.5V428.701H760V442.616H758.5V449.573C758.5 451.035 758.301 452.439 757.942 453.739L759.388 454.138C758.485 457.407 756.648 460.108 754.328 461.638L753.504 460.387C752.4 461.115 751.207 461.5 749.984 461.5H742.336V463H727.039V461.5H711.742V463H696.445V461.5H681.148V463H665.852V461.5H650.555V463H635.258V461.5H619.961V463H604.664V461.5H597.016C595.793 461.5 594.6 461.115 593.496 460.387L592.671 461.638C590.351 460.108 588.514 457.407 587.611 454.138L589.058 453.739C588.699 452.439 588.5 451.035 588.5 449.573V442.616H587V428.701H588.5V414.787H587V400.872H588.5V386.957H587V373.043H588.5V359.128H587V345.213H588.5V331.299H587V317.384H588.5V310.427C588.5 308.965 588.699 307.561 589.058 306.261L587.611 305.861C588.514 302.592 590.351 299.891 592.671 298.361L593.496 299.613C594.6 298.885 595.793 298.5 597.016 298.5H604.664V297H619.961Z" fill="#D6DCE8" stroke="#AAB2C5" stroke-width="3" stroke-miterlimit="10" stroke-dasharray="14.58 14.58"/>
<path d="M681.484 366.559C681.522 366.559 681.544 366.57 681.55 366.574C681.552 366.575 681.553 366.577 681.555 366.58C681.557 366.582 681.567 366.594 681.579 366.625L687.208 381.836C687.609 382.921 688.464 383.777 689.549 384.178L704.759 389.806C704.791 389.818 704.804 389.828 704.806 389.83C704.809 389.832 704.81 389.833 704.811 389.834C704.815 389.84 704.826 389.864 704.826 389.902C704.826 389.94 704.815 389.962 704.811 389.968C704.81 389.97 704.809 389.971 704.806 389.973C704.804 389.975 704.791 389.985 704.759 389.997L689.549 395.625C688.464 396.027 687.609 396.882 687.208 397.967L681.579 413.177C681.567 413.209 681.557 413.222 681.555 413.224C681.553 413.227 681.552 413.228 681.55 413.229C681.544 413.233 681.522 413.244 681.484 413.244C681.446 413.244 681.422 413.233 681.417 413.229C681.415 413.228 681.414 413.227 681.412 413.224C681.41 413.222 681.4 413.209 681.388 413.177L675.76 397.967C675.359 396.882 674.503 396.027 673.418 395.625L658.208 389.997C658.176 389.985 658.164 389.975 658.162 389.973C658.159 389.971 658.157 389.97 658.156 389.968C658.152 389.962 658.141 389.939 658.141 389.902C658.141 389.864 658.152 389.84 658.156 389.834C658.157 389.833 658.159 389.832 658.162 389.83C658.164 389.827 658.177 389.817 658.208 389.806L673.418 384.178C674.503 383.777 675.359 382.921 675.76 381.836L681.388 366.625C681.399 366.595 681.409 366.582 681.412 366.58C681.414 366.577 681.415 366.575 681.417 366.574C681.422 366.57 681.446 366.559 681.484 366.559Z" stroke="#9EA8C1" stroke-width="3.86229"/>
<path d="M657.623 353.756C657.661 353.756 657.683 353.767 657.689 353.771C657.691 353.772 657.693 353.774 657.695 353.776C657.698 353.78 657.708 353.792 657.719 353.822L660.518 361.387C660.919 362.472 661.774 363.327 662.859 363.729L670.424 366.527C670.454 366.539 670.467 366.549 670.47 366.551C670.472 366.553 670.473 366.555 670.475 366.557C670.478 366.563 670.49 366.585 670.49 366.623C670.49 366.661 670.478 366.684 670.475 366.689C670.473 366.691 670.472 366.693 670.47 366.695C670.467 366.698 670.454 366.708 670.424 366.719L662.859 369.518C661.774 369.919 660.919 370.774 660.518 371.859L657.719 379.424C657.708 379.454 657.698 379.467 657.695 379.47C657.693 379.472 657.691 379.473 657.689 379.475C657.684 379.478 657.661 379.49 657.623 379.49C657.585 379.49 657.563 379.478 657.557 379.475C657.555 379.473 657.553 379.472 657.551 379.47C657.549 379.467 657.539 379.454 657.527 379.424L654.729 371.859C654.327 370.774 653.472 369.919 652.387 369.518L644.822 366.719C644.792 366.708 644.78 366.698 644.776 366.695C644.774 366.693 644.772 366.691 644.771 366.689C644.767 366.683 644.756 366.661 644.756 366.623C644.756 366.586 644.766 366.563 644.771 366.557C644.772 366.555 644.774 366.553 644.776 366.551C644.779 366.548 644.792 366.538 644.822 366.527L652.387 363.729C653.472 363.327 654.327 362.472 654.729 361.387L657.527 353.822C657.538 353.792 657.548 353.779 657.551 353.776C657.553 353.774 657.555 353.772 657.557 353.771C657.563 353.766 657.586 353.756 657.623 353.756Z" stroke="#9EA8C1" stroke-width="3.86229"/>
<path d="M875.896 212.711C875.051 213.964 874.628 214.8 872.938 215.635L853.5 223.571C850.542 224.824 847.584 226.495 845.471 228.583C843.358 230.672 841.668 232.76 841.246 235.684L833.217 254.898C832.372 257.822 828.991 259.075 826.878 257.822C826.033 256.986 824.765 256.568 824.765 255.733L794.634 181.349C793.789 180.095 793.789 178.425 794.634 177.589C795.479 176.336 797.592 175.501 799.705 176.336L875.051 206.028C875.896 207.699 876.741 210.623 875.896 212.711Z" fill="#D6DCE8" stroke="#AAB2C5" stroke-width="2.46103" stroke-miterlimit="10" stroke-linejoin="round"/>
<rect x="753" y="69" width="32.2064" height="32.2064" rx="6.57142" fill="#D6DCE8" stroke="#AAB2C5" stroke-width="2.46103" stroke-miterlimit="10"/>
<rect x="749" y="249" width="32.2064" height="32.2064" rx="6.57142" fill="#D6DCE8" stroke="#AAB2C5" stroke-width="2.46103" stroke-miterlimit="10"/>
<rect x="566" y="72" width="32.2064" height="32.2064" rx="6.57142" fill="#D6DCE8" stroke="#AAB2C5" stroke-width="2.46103" stroke-miterlimit="10"/>
<rect x="566" y="249" width="32.2064" height="32.2064" rx="6.57142" fill="#D6DCE8" stroke="#AAB2C5" stroke-width="2.46103" stroke-miterlimit="10"/>
<rect x="640" y="196" width="66" height="19.8811" rx="9.94057" fill="white" stroke="#D6DCE8" stroke-width="2" stroke-miterlimit="10"/>
<path d="M655.572 196.483L655.572 215.082" stroke="#D6DCE8" stroke-width="2" stroke-miterlimit="10"/>
<path d="M691.276 196.483L691.276 215.082" stroke="#D6DCE8" stroke-width="2" stroke-miterlimit="10"/>
<circle cx="665.088" cy="205.941" r="2.3668" fill="#D6DCE8"/>
<circle cx="673.473" cy="205.941" r="2.3668" fill="#D6DCE8"/>
<circle cx="681.859" cy="205.941" r="2.3668" fill="#D6DCE8"/>
<path d="M648.994 202.627L645.68 205.94L648.994 209.254" stroke="#D6DCE8" stroke-width="2" stroke-miterlimit="10" stroke-linecap="round" stroke-linejoin="round"/>
<path d="M697.48 202.627L700.793 205.94L697.48 209.254" stroke="#D6DCE8" stroke-width="2" stroke-miterlimit="10" stroke-linecap="round" stroke-linejoin="round"/>
<path d="M252 130.756C252.037 130.756 252.06 130.766 252.066 130.771C252.068 130.772 252.07 130.774 252.072 130.776C252.075 130.779 252.085 130.792 252.096 130.822L255.536 140.122C255.938 141.207 256.793 142.062 257.878 142.464L267.178 145.904C267.208 145.915 267.221 145.925 267.224 145.928C267.226 145.93 267.228 145.932 267.229 145.934C267.234 145.94 267.244 145.963 267.244 146C267.244 146.037 267.234 146.06 267.229 146.066C267.228 146.068 267.226 146.07 267.224 146.072C267.221 146.075 267.208 146.085 267.178 146.096L257.878 149.536C256.793 149.938 255.938 150.793 255.536 151.878L252.096 161.178C252.085 161.208 252.075 161.221 252.072 161.224C252.07 161.226 252.068 161.228 252.066 161.229C252.06 161.234 252.037 161.244 252 161.244C251.963 161.244 251.94 161.234 251.934 161.229C251.932 161.228 251.93 161.226 251.928 161.224C251.925 161.221 251.915 161.208 251.904 161.178L248.464 151.878C248.062 150.793 247.207 149.938 246.122 149.536L236.822 146.096C236.792 146.085 236.779 146.075 236.776 146.072C236.774 146.07 236.772 146.068 236.771 146.066C236.766 146.06 236.756 146.037 236.756 146C236.756 145.963 236.766 145.94 236.771 145.934C236.772 145.932 236.774 145.93 236.776 145.928C236.779 145.925 236.792 145.915 236.822 145.904L246.122 142.464C247.207 142.062 248.062 141.207 248.464 140.122L251.904 130.822C251.915 130.792 251.925 130.779 251.928 130.776C251.93 130.774 251.932 130.772 251.934 130.771C251.94 130.766 251.963 130.756 252 130.756Z" stroke="#9EA8C1" stroke-width="3.86229"/>
<path d="M674.543 144.71C674.544 144.711 674.545 144.711 674.546 144.713C674.547 144.714 674.554 144.723 674.562 144.743L676.773 150.721C677.032 151.418 677.582 151.968 678.279 152.227L684.257 154.438C684.277 154.446 684.286 154.453 684.287 154.454C684.289 154.455 684.289 154.456 684.29 154.457C684.292 154.461 684.3 154.475 684.3 154.5C684.3 154.525 684.292 154.539 684.29 154.543C684.289 154.544 684.289 154.545 684.287 154.546C684.286 154.547 684.277 154.554 684.257 154.562L678.279 156.773C677.582 157.032 677.032 157.582 676.773 158.279L674.562 164.257C674.554 164.277 674.547 164.286 674.546 164.287C674.545 164.289 674.544 164.289 674.543 164.29C674.539 164.292 674.525 164.3 674.5 164.3C674.475 164.3 674.461 164.292 674.457 164.29C674.456 164.289 674.455 164.289 674.454 164.287C674.453 164.286 674.446 164.277 674.438 164.257L672.227 158.279C671.968 157.582 671.418 157.032 670.721 156.773L664.743 154.562C664.723 154.554 664.714 154.547 664.713 154.546C664.711 154.545 664.711 154.544 664.71 154.543C664.708 154.539 664.7 154.525 664.7 154.5C664.7 154.475 664.708 154.461 664.71 154.457C664.711 154.456 664.711 154.455 664.713 154.454C664.714 154.453 664.723 154.446 664.743 154.438L670.721 152.227C671.418 151.968 671.968 151.418 672.227 150.721L674.438 144.743C674.446 144.723 674.453 144.714 674.454 144.713C674.455 144.711 674.456 144.711 674.457 144.71C674.461 144.708 674.475 144.7 674.5 144.7C674.525 144.7 674.539 144.708 674.543 144.71Z" stroke="#9EA8C1" stroke-width="2.4829"/>
</svg>
