<svg width="949" height="512" viewBox="0 0 949 512" fill="none" xmlns="http://www.w3.org/2000/svg">
<rect x="0.5" y="0.5" width="947.14" height="511" rx="23.5" fill="#ECEDF1" fill-opacity="0.53"/>
<rect x="0.5" y="0.5" width="947.14" height="511" rx="23.5" stroke="#E0E1E6"/>
<rect x="175.5" y="37.5" width="597" height="437" rx="21.5" fill="white" fill-opacity="0.39" stroke="#D6DCE8" stroke-width="3"/>
<path d="M197.05 63C200.364 63 203.05 60.3137 203.05 57C203.05 53.6863 200.364 51 197.05 51C193.736 51 191.05 53.6863 191.05 57C191.05 60.3137 193.736 63 197.05 63Z" fill="#ED6A5E"/>
<path d="M217.05 63C220.364 63 223.05 60.3137 223.05 57C223.05 53.6863 220.364 51 217.05 51C213.736 51 211.05 53.6863 211.05 57C211.05 60.3137 213.736 63 217.05 63Z" fill="#F4BD4F"/>
<path d="M237.05 63C240.364 63 243.05 60.3137 243.05 57C243.05 53.6863 240.364 51 237.05 51C233.736 51 231.05 53.6863 231.05 57C231.05 60.3137 233.736 63 237.05 63Z" fill="#61C454"/>
<path d="M437.647 328.067V329.567H453.797V328.067H469.948V329.567H486.099V328.067H502.25V329.567H518.401V328.067H534.551V329.567H542.626C546.368 329.567 549.586 332.819 549.586 336.797V344.337H551.086V359.415H549.586V374.494H551.086V389.573H549.586V404.652H551.086V419.73H549.586V427.271C549.586 431.248 546.368 434.5 542.626 434.5H534.551V436H518.401V434.5H502.25V436H486.099V434.5H469.948V436H453.797V434.5H437.647V436H421.496V434.5H413.42C409.795 434.5 406.662 431.448 406.47 427.641L406.46 427.271V419.73H404.96V404.652H406.46V389.573H404.96V374.494H406.46V359.415H404.96V344.337H406.46V336.797C406.461 332.819 409.678 329.567 413.42 329.567H421.496V328.067H437.647Z" fill="#D6DCE8" stroke="#AAB2C5" stroke-width="3" stroke-miterlimit="10" stroke-dasharray="16.75 16.75"/>
<path d="M480.217 366.365V395.127" stroke="#AAB2C5" stroke-width="3" stroke-miterlimit="10" stroke-linecap="round" stroke-linejoin="round"/>
<path d="M465.847 380.747H494.588" stroke="#AAB2C5" stroke-width="3" stroke-miterlimit="10" stroke-linecap="round" stroke-linejoin="round"/>
<path d="M370.472 114H237.654C234.071 114 231 116.814 231 120.651V170.02C231 173.601 233.815 176.671 237.654 176.671H370.472C374.055 176.671 377.126 173.857 377.126 170.02V120.395C376.87 116.814 374.055 114 370.472 114Z" fill="white" stroke="#D6DCE8" stroke-width="3" stroke-miterlimit="10"/>
<path d="M721.871 242.822H589.053C585.47 242.822 582.399 245.636 582.399 249.473V298.842C582.399 302.423 585.214 305.493 589.053 305.493H721.871C725.454 305.493 728.525 302.679 728.525 298.842V249.217C728.269 245.636 725.454 242.822 721.871 242.822Z" fill="white" stroke="#D6DCE8" stroke-width="3" stroke-miterlimit="10"/>
<path d="M545.551 114H412.732C409.149 114 406.078 116.814 406.078 120.651V170.02C406.078 173.601 408.893 176.671 412.732 176.671H545.551C549.133 176.671 552.204 173.857 552.204 170.02V120.395C552.204 116.814 549.133 114 545.551 114Z" fill="white" stroke="#D6DCE8" stroke-width="3" stroke-miterlimit="10"/>
<path d="M719.896 114H590.689C586.075 114 582.229 117.712 582.229 122.167V206.803C582.229 211.257 586.075 214.969 590.689 214.969H719.896C724.51 214.969 728.356 211.257 728.356 206.803V122.167C728.356 117.465 724.51 114 719.896 114Z" fill="white" stroke="#D6DCE8" stroke-width="3" stroke-miterlimit="10"/>
<path d="M719.896 335H590.689C586.075 335 582.229 338.712 582.229 343.167V427.803C582.229 432.257 586.075 435.969 590.689 435.969H719.896C724.51 435.969 728.356 432.257 728.356 427.803V343.167C728.356 338.465 724.51 335 719.896 335Z" fill="white" stroke="#D6DCE8" stroke-width="3" stroke-miterlimit="10"/>
<path d="M372.489 295H242.51C237.868 295 234 300.074 234 306.162V421.838C234 427.926 237.868 433 242.51 433H372.489C377.132 433 381 427.926 381 421.838V306.162C381 299.735 377.132 295 372.489 295Z" fill="white" stroke="#D6DCE8" stroke-width="3" stroke-miterlimit="10"/>
<path fill-rule="evenodd" clip-rule="evenodd" d="M351.314 147.147C351.314 148.07 350.565 148.818 349.642 148.818H258.448C257.525 148.818 256.777 148.07 256.777 147.147V143.526C256.777 142.603 257.525 141.854 258.448 141.854H349.642C350.565 141.854 351.314 142.603 351.314 143.526V147.147Z" fill="#D6DCE8"/>
<path fill-rule="evenodd" clip-rule="evenodd" d="M702.712 275.969C702.712 276.892 701.964 277.64 701.041 277.64H609.847C608.924 277.64 608.176 276.892 608.176 275.969V272.348C608.176 271.425 608.924 270.677 609.847 270.677H701.041C701.964 270.677 702.712 271.425 702.712 272.348V275.969Z" fill="#D6DCE8"/>
<path d="M370.473 204.525H237.654C234.071 204.525 231 207.339 231 211.176V260.545C231 264.126 233.815 267.196 237.654 267.196H370.473C374.055 267.196 377.126 264.382 377.126 260.545V211.176C376.871 207.595 374.055 204.525 370.473 204.525Z" fill="white" stroke="#D6DCE8" stroke-width="3" stroke-miterlimit="10"/>
<path fill-rule="evenodd" clip-rule="evenodd" d="M351.314 237.67C351.314 238.593 350.565 239.341 349.642 239.341H258.448C257.525 239.341 256.777 238.593 256.777 237.67V234.049C256.777 233.126 257.525 232.377 258.448 232.377H349.642C350.565 232.377 351.314 233.126 351.314 234.049V237.67Z" fill="#D6DCE8"/>
<path fill-rule="evenodd" clip-rule="evenodd" d="M526.66 147.147C526.66 148.07 525.911 148.818 524.988 148.818H433.525C432.602 148.818 431.854 148.07 431.854 147.147V143.526C431.854 142.603 432.602 141.854 433.525 141.854H524.988C525.911 141.854 526.66 142.603 526.66 143.526V147.147Z" fill="#D6DCE8"/>
<path d="M544.013 202.146H414.806C410.192 202.146 406.346 205.858 406.346 210.312V294.948C406.346 299.403 410.192 303.115 414.806 303.115H544.013C548.627 303.115 552.473 299.403 552.473 294.948V210.312C552.473 205.858 548.627 202.146 544.013 202.146Z" fill="white" stroke="#D6DCE8" stroke-width="3" stroke-miterlimit="10"/>
<path fill-rule="evenodd" clip-rule="evenodd" d="M526.66 237.005C526.66 237.928 525.911 238.676 524.988 238.676H433.525C432.602 238.676 431.854 237.928 431.854 237.005V233.384C431.854 232.461 432.602 231.713 433.525 231.713H524.988C525.911 231.713 526.66 232.461 526.66 233.384V237.005Z" fill="#D6DCE8"/>
<path fill-rule="evenodd" clip-rule="evenodd" d="M492.291 264.412C492.291 265.335 491.543 266.084 490.62 266.084H433.525C432.602 266.084 431.854 265.335 431.854 264.412V260.791C431.854 259.868 432.602 259.12 433.525 259.12H490.62C491.543 259.12 492.291 259.868 492.291 260.791V264.412Z" fill="#D6DCE8"/>
<path fill-rule="evenodd" clip-rule="evenodd" d="M702.542 148.054C702.542 148.977 701.794 149.725 700.871 149.725H609.408C608.485 149.725 607.737 148.977 607.737 148.054V144.433C607.737 143.51 608.485 142.762 609.408 142.762H700.871C701.794 142.762 702.542 143.51 702.542 144.433V148.054Z" fill="#D6DCE8"/>
<path fill-rule="evenodd" clip-rule="evenodd" d="M702.542 369.054C702.542 369.977 701.794 370.725 700.871 370.725H609.408C608.485 370.725 607.737 369.977 607.737 369.054V365.433C607.737 364.51 608.485 363.762 609.408 363.762H700.871C701.794 363.762 702.542 364.51 702.542 365.433V369.054Z" fill="#D6DCE8"/>
<path fill-rule="evenodd" clip-rule="evenodd" d="M354.793 329.104C354.793 330.027 354.045 330.775 353.122 330.775H261.659C260.736 330.775 259.988 330.027 259.988 329.104V325.483C259.988 324.56 260.736 323.812 261.659 323.812H353.122C354.045 323.812 354.793 324.56 354.793 325.483V329.104Z" fill="#D6DCE8"/>
<path fill-rule="evenodd" clip-rule="evenodd" d="M668.174 175.463C668.174 176.386 667.425 177.134 666.502 177.134H609.408C608.485 177.134 607.737 176.386 607.737 175.463V171.842C607.737 170.919 608.485 170.17 609.408 170.17H666.502C667.425 170.17 668.174 170.919 668.174 171.842V175.463Z" fill="#D6DCE8"/>
<path fill-rule="evenodd" clip-rule="evenodd" d="M668.174 396.463C668.174 397.386 667.425 398.134 666.502 398.134H609.408C608.485 398.134 607.737 397.386 607.737 396.463V392.842C607.737 391.919 608.485 391.17 609.408 391.17H666.502C667.425 391.17 668.174 391.919 668.174 392.842V396.463Z" fill="#D6DCE8"/>
<path fill-rule="evenodd" clip-rule="evenodd" d="M320.424 356.51C320.424 357.433 319.676 358.182 318.753 358.182H261.659C260.736 358.182 259.988 357.433 259.988 356.51V352.889C259.988 351.966 260.736 351.218 261.659 351.218H318.753C319.676 351.218 320.424 351.966 320.424 352.889V356.51Z" fill="#D6DCE8"/>
</svg>
