<svg width="949" height="512" viewBox="0 0 949 512" fill="none" xmlns="http://www.w3.org/2000/svg">
<rect x="0.5" y="0.5" width="947.14" height="511" rx="23.5" fill="#ECEDF1" fill-opacity="0.53"/>
<rect x="0.5" y="0.5" width="947.14" height="511" rx="23.5" stroke="#E0E1E6"/>
<rect x="197.5" y="37.5" width="597" height="437" rx="21.5" fill="white" fill-opacity="0.39" stroke="#D6DCE8" stroke-width="3"/>
<path d="M219.05 63C222.364 63 225.05 60.3137 225.05 57C225.05 53.6863 222.364 51 219.05 51C215.736 51 213.05 53.6863 213.05 57C213.05 60.3137 215.736 63 219.05 63Z" fill="#ED6A5E"/>
<path d="M239.05 63C242.364 63 245.05 60.3137 245.05 57C245.05 53.6863 242.364 51 239.05 51C235.736 51 233.05 53.6863 233.05 57C233.05 60.3137 235.736 63 239.05 63Z" fill="#F4BD4F"/>
<path d="M259.05 63C262.364 63 265.05 60.3137 265.05 57C265.05 53.6863 262.364 51 259.05 51C255.736 51 253.05 53.6863 253.05 57C253.05 60.3137 255.736 63 259.05 63Z" fill="#61C454"/>
<path d="M771.96 82H220C215.582 82 212 85.5817 212 90V122C212 126.418 215.582 130 220 130H771.96C776.378 130 779.96 126.418 779.96 122V90C779.96 85.5817 776.378 82 771.96 82Z" fill="#F9FAFB" stroke="#E7E7E9" stroke-width="3" stroke-miterlimit="10"/>
<path d="M615.66 102.96H586.89C585.294 102.96 584 104.254 584 105.85V105.86C584 107.456 585.294 108.75 586.89 108.75H615.66C617.256 108.75 618.55 107.456 618.55 105.86V105.85C618.55 104.254 617.256 102.96 615.66 102.96Z" fill="#747474"/>
<path d="M670.29 102.96H641.52C639.924 102.96 638.63 104.254 638.63 105.85V105.86C638.63 107.456 639.924 108.75 641.52 108.75H670.29C671.886 108.75 673.18 107.456 673.18 105.86V105.85C673.18 104.254 671.886 102.96 670.29 102.96Z" fill="#D1D5DB"/>
<path d="M724.92 102.96H696.15C694.554 102.96 693.26 104.254 693.26 105.85V105.86C693.26 107.456 694.554 108.75 696.15 108.75H724.92C726.516 108.75 727.81 107.456 727.81 105.86V105.85C727.81 104.254 726.516 102.96 724.92 102.96Z" fill="#D1D5DB"/>
<path d="M243.9 116.82C249.92 116.82 254.8 111.939 254.8 105.92C254.8 99.8996 249.92 95.0195 243.9 95.0195C237.88 95.0195 233 99.8996 233 105.92C233 111.939 237.88 116.82 243.9 116.82Z" fill="#9CA3AF"/>
<rect opacity="0.3" x="449.656" y="187.35" width="124.195" height="56.9226" rx="16.0211" fill="#AAB2C5"/>
<rect x="441.894" y="177" width="124.195" height="56.9226" rx="13.3509" fill="white" stroke="#AAB2C5" stroke-width="2.5" stroke-miterlimit="10"/>
<path d="M444.804 205.462H564.148" stroke="#D6DCE8" stroke-width="3"/>
<path d="M521.456 179.276L521.456 230.196" stroke="#D6DCE8" stroke-width="3"/>
<path d="M453.537 190.662H500.11" stroke="#D6DCE8" stroke-width="3" stroke-linecap="round"/>
<path d="M531.159 190.662H542.802" stroke="#D6DCE8" stroke-width="3" stroke-linecap="round"/>
<path d="M453.537 217.985H500.11" stroke="#D6DCE8" stroke-width="3" stroke-linecap="round"/>
<path d="M531.159 217.985H542.802" stroke="#D6DCE8" stroke-width="3" stroke-linecap="round"/>
<rect x="297" y="177" width="124.195" height="232.865" rx="13.3509" fill="white" stroke="#AAB2C5" stroke-width="2.5" stroke-miterlimit="10"/>
<rect opacity="0.3" x="449.656" y="283" width="124.195" height="137.132" rx="16.0211" fill="#AAB2C5"/>
<rect x="442" y="260" width="124" height="150" rx="13.3509" fill="white" stroke="#AAB2C5" stroke-width="2.5" stroke-miterlimit="10"/>
<rect x="586.788" y="177" width="124.195" height="124.195" rx="13.3509" fill="white" stroke="#AAB2C5" stroke-width="2.5" stroke-miterlimit="10"/>
<path d="M315.112 228.748H404.377" stroke="#D6DCE8" stroke-width="3" stroke-miterlimit="10"/>
<path d="M315.112 210.637H404.377" stroke="#D6DCE8" stroke-width="3" stroke-miterlimit="10"/>
<path d="M315.112 246.86H404.377" stroke="#D6DCE8" stroke-width="3" stroke-miterlimit="10"/>
<path d="M599.725 200.288H688.99" stroke="#D6DCE8" stroke-width="3" stroke-miterlimit="10"/>
<path d="M315.112 264.972H362.979" stroke="#D6DCE8" stroke-width="3" stroke-miterlimit="10"/>
<path d="M599.725 218.398H647.591" stroke="#D6DCE8" stroke-width="3" stroke-miterlimit="10"/>
<path d="M621.523 281.23L613.096 281.335C611.486 281.48 610.377 279.951 610.262 278.659L610.144 259.13C610 257.515 611.523 256.401 612.81 256.285L621.238 256.18C622.847 256.036 623.957 257.564 624.072 258.857L624.19 278.385C624.334 280.001 623.162 281.409 621.523 281.23Z" fill="#D6DCE8"/>
<path d="M642.943 281.262L634.516 281.367C632.906 281.511 631.796 279.983 631.681 278.691L631.723 250.029C631.579 248.414 633.102 247.3 634.39 247.185L642.817 247.079C644.427 246.935 645.536 248.464 645.651 249.756L645.61 278.417C645.754 280.033 644.231 281.146 642.943 281.262Z" fill="#D6DCE8"/>
<path d="M686.968 281.262L678.54 281.367C676.931 281.511 675.821 279.983 675.706 278.691L675.748 250.029C675.604 248.414 677.127 247.3 678.415 247.185L686.842 247.079C688.451 246.935 689.561 248.464 689.676 249.756L689.635 278.417C689.779 280.033 688.255 281.146 686.968 281.262Z" fill="#D6DCE8"/>
<path d="M664.01 280.998L655.583 281.103C653.974 281.248 652.864 279.719 652.749 278.427L652.599 240.339C652.455 238.723 653.978 237.61 655.266 237.494L663.693 237.389C665.303 237.244 666.413 238.773 666.528 240.065L666.677 278.153C666.821 279.769 665.649 281.177 664.01 280.998Z" fill="#AAB2C5"/>
<path d="M356.958 318.82L356.746 299.385C378.439 300.886 395.533 318.884 396.01 340.369C396.229 354.144 389.021 366.318 378.016 373.235L368.024 355.589C372.903 352.064 375.853 346.312 375.951 339.447C375.875 329.328 367.328 320.329 356.958 318.82Z" fill="#AAB2C5"/>
<path d="M352.483 299.878L352.693 319.156C346.429 319.69 340.778 323.099 337.477 328.362L320.876 317.364C327.447 307.235 338.749 300.418 352.483 299.878Z" fill="#F1F3F9"/>
<path d="M317.334 322.47L334.323 333.492C333.763 335.434 333.202 337.377 333.434 339.804C333.419 351.014 343.069 360.453 355.051 360.93C358.37 360.884 361.307 360.396 363.863 359.467L373.767 376.541C368.184 379.149 361.868 380.478 355.26 380.173C332.5 379.747 313.993 361.356 313.582 339.288C313.619 333.285 314.889 327.414 317.334 322.47Z" fill="#D6DCE8"/>
<path d="M459.54 293.146L483.672 317.103L510.676 289.887L541.894 285.288" stroke="#AAB2C5" stroke-width="3" stroke-miterlimit="10"/>
<path d="M460.116 287.045C463.589 287.045 466.403 289.863 466.404 293.336C466.404 296.81 463.589 299.628 460.116 299.628C456.642 299.628 453.828 296.81 453.828 293.336C453.828 289.863 456.642 287.045 460.116 287.045Z" fill="white" stroke="#AAB2C5" stroke-width="3"/>
<path d="M483.864 310.812C487.337 310.812 490.152 313.629 490.152 317.103C490.152 320.576 487.337 323.394 483.864 323.395C480.39 323.395 477.576 320.576 477.576 317.103C477.576 313.629 480.39 310.812 483.864 310.812Z" fill="white" stroke="#AAB2C5" stroke-width="3"/>
<path d="M511.252 283.596C514.725 283.596 517.54 286.413 517.54 289.887C517.54 293.36 514.725 296.179 511.252 296.179C507.778 296.179 504.964 293.36 504.964 289.887C504.964 286.413 507.778 283.596 511.252 283.596Z" fill="white" stroke="#AAB2C5" stroke-width="3"/>
<path d="M541.894 278.996C545.368 278.996 548.182 281.814 548.182 285.287C548.182 288.761 545.368 291.579 541.894 291.579C538.421 291.579 535.606 288.761 535.606 285.287C535.606 281.814 538.421 278.996 541.894 278.996Z" fill="white" stroke="#AAB2C5" stroke-width="3"/>
<path d="M461.3 340.005V381.393" stroke="#D6DCE8" stroke-width="3" stroke-miterlimit="10"/>
<path d="M461.3 353.356V372.048" stroke="#AAB2C5" stroke-width="3" stroke-miterlimit="10"/>
<path d="M482.661 340.005V381.393" stroke="#D6DCE8" stroke-width="3" stroke-miterlimit="10"/>
<path d="M482.661 345.346V350.686" stroke="#AAB2C5" stroke-width="3" stroke-miterlimit="10"/>
<path d="M504.023 340.005V381.393" stroke="#D6DCE8" stroke-width="3" stroke-miterlimit="10"/>
<path d="M504.023 348.016V361.367" stroke="#AAB2C5" stroke-width="3" stroke-miterlimit="10"/>
<path d="M525.384 340.005V381.393" stroke="#D6DCE8" stroke-width="3" stroke-miterlimit="10"/>
<path d="M525.384 348.016V374.718" stroke="#AAB2C5" stroke-width="3" stroke-miterlimit="10"/>
<path d="M546.746 340.005V381.393" stroke="#D6DCE8" stroke-width="3" stroke-miterlimit="10"/>
<path d="M546.745 353.356V364.037" stroke="#AAB2C5" stroke-width="3" stroke-miterlimit="10"/>
<path d="M615.467 317V318.5H629.533V317H643.599V318.5H657.665V317H671.73V318.5H685.797V317H699.862V318.5H706.896C710.042 318.5 712.763 321.239 712.764 324.603V331.169H714.264V344.302H712.764V357.434H714.264V370.566H712.764V383.698H714.264V396.831H712.764V403.397C712.763 406.761 710.042 409.5 706.896 409.5H699.862V411H685.797V409.5H671.73V411H657.665V409.5H643.599V411H629.533V409.5H615.467V411H601.401V409.5H594.368C591.32 409.5 588.671 406.929 588.508 403.711L588.5 403.397V396.831H587V383.698H588.5V370.566H587V357.434H588.5V344.302H587V331.169H588.5V324.603C588.5 321.239 591.222 318.5 594.368 318.5H601.401V317H615.467Z" fill="#D6DCE8" stroke="#AAB2C5" stroke-width="3" stroke-miterlimit="10" stroke-dasharray="14.58 14.58"/>
<path d="M652.542 350.354V375.403" stroke="#AAB2C5" stroke-width="3" stroke-miterlimit="10" stroke-linecap="round" stroke-linejoin="round"/>
<path d="M640.027 362.879H665.058" stroke="#AAB2C5" stroke-width="3" stroke-miterlimit="10" stroke-linecap="round" stroke-linejoin="round"/>
</svg>
